<mxfile host="app.diagrams.net" modified="2023-07-27T01:59:41.965Z" agent="Mozilla/5.0 (Windows NT 6.3; Win64; x64) AppleWebKit/537.36 (KHTML, like Gecko) Chrome/109.0.0.0 Safari/537.36 OPR/95.0.0.0" etag="2H8Dq9ib1ML1qRHL8iEH" version="21.6.5" type="device" pages="6">
  <diagram id="prtHgNgQTEPvFCAcTncT" name="Ingreso al sistema">
    <mxGraphModel dx="1990" dy="1193" grid="1" gridSize="10" guides="1" tooltips="1" connect="1" arrows="1" fold="1" page="1" pageScale="1" pageWidth="827" pageHeight="1169" math="0" shadow="0">
      <root>
        <mxCell id="0" />
        <mxCell id="1" parent="0" />
        <mxCell id="dNxyNK7c78bLwvsdeMH5-19" value="Ingreso al sistema" style="swimlane;html=1;childLayout=stackLayout;resizeParent=1;resizeParentMax=0;horizontal=0;startSize=20;horizontalStack=0;" parent="1" vertex="1">
          <mxGeometry x="200" y="120" width="1890" height="750" as="geometry" />
        </mxCell>
        <mxCell id="dNxyNK7c78bLwvsdeMH5-27" value="" style="edgeStyle=orthogonalEdgeStyle;rounded=0;orthogonalLoop=1;jettySize=auto;html=1;dashed=1;endArrow=none;endFill=0;" parent="dNxyNK7c78bLwvsdeMH5-19" source="dNxyNK7c78bLwvsdeMH5-24" target="dNxyNK7c78bLwvsdeMH5-26" edge="1">
          <mxGeometry relative="1" as="geometry" />
        </mxCell>
        <mxCell id="dNxyNK7c78bLwvsdeMH5-20" value="Cliente" style="swimlane;html=1;startSize=20;horizontal=0;" parent="dNxyNK7c78bLwvsdeMH5-19" vertex="1">
          <mxGeometry x="20" width="1870" height="120" as="geometry" />
        </mxCell>
        <mxCell id="dNxyNK7c78bLwvsdeMH5-25" value="" style="edgeStyle=orthogonalEdgeStyle;rounded=0;orthogonalLoop=1;jettySize=auto;html=1;" parent="dNxyNK7c78bLwvsdeMH5-20" source="dNxyNK7c78bLwvsdeMH5-23" target="dNxyNK7c78bLwvsdeMH5-24" edge="1">
          <mxGeometry relative="1" as="geometry" />
        </mxCell>
        <mxCell id="dNxyNK7c78bLwvsdeMH5-23" value="" style="ellipse;whiteSpace=wrap;html=1;fillColor=#d5e8d4;strokeColor=#82b366;" parent="dNxyNK7c78bLwvsdeMH5-20" vertex="1">
          <mxGeometry x="40" y="40" width="40" height="40" as="geometry" />
        </mxCell>
        <mxCell id="ie9uYDda828ID7LDuINb-3" style="edgeStyle=orthogonalEdgeStyle;rounded=0;orthogonalLoop=1;jettySize=auto;html=1;entryX=0;entryY=0.5;entryDx=0;entryDy=0;" parent="dNxyNK7c78bLwvsdeMH5-20" source="dNxyNK7c78bLwvsdeMH5-24" target="ie9uYDda828ID7LDuINb-1" edge="1">
          <mxGeometry relative="1" as="geometry" />
        </mxCell>
        <mxCell id="dNxyNK7c78bLwvsdeMH5-24" value="Ingresar a la app web a través de su URL" style="rounded=0;whiteSpace=wrap;html=1;fontFamily=Helvetica;fontSize=12;fontColor=#000000;align=center;" parent="dNxyNK7c78bLwvsdeMH5-20" vertex="1">
          <mxGeometry x="120" y="30" width="90" height="60" as="geometry" />
        </mxCell>
        <mxCell id="ie9uYDda828ID7LDuINb-5" value="" style="edgeStyle=orthogonalEdgeStyle;rounded=0;orthogonalLoop=1;jettySize=auto;html=1;" parent="dNxyNK7c78bLwvsdeMH5-20" source="ie9uYDda828ID7LDuINb-1" target="ie9uYDda828ID7LDuINb-4" edge="1">
          <mxGeometry relative="1" as="geometry" />
        </mxCell>
        <mxCell id="ie9uYDda828ID7LDuINb-1" value="Llenar formulario de credenciales" style="whiteSpace=wrap;html=1;fontColor=#000000;rounded=0;" parent="dNxyNK7c78bLwvsdeMH5-20" vertex="1">
          <mxGeometry x="274" y="30" width="120" height="60" as="geometry" />
        </mxCell>
        <mxCell id="ie9uYDda828ID7LDuINb-4" value="Enviar el formulario completo" style="whiteSpace=wrap;html=1;fontColor=#000000;rounded=0;" parent="dNxyNK7c78bLwvsdeMH5-20" vertex="1">
          <mxGeometry x="474" y="30" width="120" height="60" as="geometry" />
        </mxCell>
        <mxCell id="0r3g34Qntt7JTbyCVin9-15" value="" style="edgeStyle=orthogonalEdgeStyle;rounded=0;orthogonalLoop=1;jettySize=auto;html=1;" parent="dNxyNK7c78bLwvsdeMH5-20" source="0r3g34Qntt7JTbyCVin9-13" target="0r3g34Qntt7JTbyCVin9-14" edge="1">
          <mxGeometry relative="1" as="geometry" />
        </mxCell>
        <mxCell id="0r3g34Qntt7JTbyCVin9-13" value="Ver respuesta del servidor" style="whiteSpace=wrap;html=1;fontColor=#000000;rounded=0;" parent="dNxyNK7c78bLwvsdeMH5-20" vertex="1">
          <mxGeometry x="855" y="30" width="120" height="60" as="geometry" />
        </mxCell>
        <mxCell id="0r3g34Qntt7JTbyCVin9-14" value="" style="ellipse;whiteSpace=wrap;html=1;rounded=0;fillColor=#f8cecc;strokeColor=#b85450;" parent="dNxyNK7c78bLwvsdeMH5-20" vertex="1">
          <mxGeometry x="1140" y="20" width="80" height="80" as="geometry" />
        </mxCell>
        <mxCell id="3atz7YG5cLwqBhQvLp4H-28" value="" style="edgeStyle=orthogonalEdgeStyle;rounded=0;orthogonalLoop=1;jettySize=auto;html=1;entryX=0;entryY=0.5;entryDx=0;entryDy=0;" parent="dNxyNK7c78bLwvsdeMH5-20" source="3atz7YG5cLwqBhQvLp4H-25" target="3atz7YG5cLwqBhQvLp4H-30" edge="1">
          <mxGeometry relative="1" as="geometry">
            <mxPoint x="1760" y="70" as="targetPoint" />
          </mxGeometry>
        </mxCell>
        <mxCell id="3atz7YG5cLwqBhQvLp4H-25" value="Ver vista de bienvenida" style="whiteSpace=wrap;html=1;labelBackgroundColor=#ffffff;" parent="dNxyNK7c78bLwvsdeMH5-20" vertex="1">
          <mxGeometry x="1570" y="40" width="120" height="60" as="geometry" />
        </mxCell>
        <mxCell id="3atz7YG5cLwqBhQvLp4H-30" value="" style="ellipse;whiteSpace=wrap;html=1;fillColor=#f8cecc;strokeColor=#b85450;" parent="dNxyNK7c78bLwvsdeMH5-20" vertex="1">
          <mxGeometry x="1768" y="30" width="80" height="80" as="geometry" />
        </mxCell>
        <mxCell id="ie9uYDda828ID7LDuINb-2" value="" style="edgeStyle=orthogonalEdgeStyle;rounded=0;orthogonalLoop=1;jettySize=auto;html=1;dashed=1;" parent="dNxyNK7c78bLwvsdeMH5-19" source="dNxyNK7c78bLwvsdeMH5-26" target="ie9uYDda828ID7LDuINb-1" edge="1">
          <mxGeometry relative="1" as="geometry" />
        </mxCell>
        <mxCell id="ie9uYDda828ID7LDuINb-8" value="" style="edgeStyle=orthogonalEdgeStyle;rounded=0;orthogonalLoop=1;jettySize=auto;html=1;dashed=1;exitX=0.5;exitY=1;exitDx=0;exitDy=0;entryX=0.5;entryY=0;entryDx=0;entryDy=0;" parent="dNxyNK7c78bLwvsdeMH5-19" source="ie9uYDda828ID7LDuINb-4" target="ie9uYDda828ID7LDuINb-6" edge="1">
          <mxGeometry relative="1" as="geometry">
            <mxPoint x="248" y="200" as="sourcePoint" />
            <mxPoint x="364" y="100" as="targetPoint" />
          </mxGeometry>
        </mxCell>
        <mxCell id="ie9uYDda828ID7LDuINb-11" value="" style="edgeStyle=orthogonalEdgeStyle;rounded=0;orthogonalLoop=1;jettySize=auto;html=1;dashed=1;exitX=0.5;exitY=1;exitDx=0;exitDy=0;entryX=0.5;entryY=0;entryDx=0;entryDy=0;entryPerimeter=0;" parent="dNxyNK7c78bLwvsdeMH5-19" source="ie9uYDda828ID7LDuINb-9" target="ie9uYDda828ID7LDuINb-31" edge="1">
          <mxGeometry relative="1" as="geometry">
            <mxPoint x="553.66" y="350" as="sourcePoint" />
            <mxPoint x="554" y="450" as="targetPoint" />
          </mxGeometry>
        </mxCell>
        <mxCell id="0r3g34Qntt7JTbyCVin9-12" value="" style="edgeStyle=orthogonalEdgeStyle;rounded=0;orthogonalLoop=1;jettySize=auto;html=1;entryX=0.5;entryY=1;entryDx=0;entryDy=0;dashed=1;" parent="dNxyNK7c78bLwvsdeMH5-19" source="0r3g34Qntt7JTbyCVin9-9" target="0r3g34Qntt7JTbyCVin9-13" edge="1">
          <mxGeometry relative="1" as="geometry">
            <mxPoint x="760" y="90" as="targetPoint" />
          </mxGeometry>
        </mxCell>
        <mxCell id="3atz7YG5cLwqBhQvLp4H-11" style="edgeStyle=orthogonalEdgeStyle;rounded=0;orthogonalLoop=1;jettySize=auto;html=1;entryX=0.5;entryY=1;entryDx=0;entryDy=0;dashed=1;" parent="dNxyNK7c78bLwvsdeMH5-19" source="3atz7YG5cLwqBhQvLp4H-10" target="0r3g34Qntt7JTbyCVin9-13" edge="1">
          <mxGeometry relative="1" as="geometry">
            <Array as="points">
              <mxPoint x="935" y="180" />
            </Array>
          </mxGeometry>
        </mxCell>
        <mxCell id="3atz7YG5cLwqBhQvLp4H-26" value="" style="edgeStyle=orthogonalEdgeStyle;rounded=0;orthogonalLoop=1;jettySize=auto;html=1;dashed=1;" parent="dNxyNK7c78bLwvsdeMH5-19" source="3atz7YG5cLwqBhQvLp4H-23" target="3atz7YG5cLwqBhQvLp4H-25" edge="1">
          <mxGeometry relative="1" as="geometry" />
        </mxCell>
        <mxCell id="dNxyNK7c78bLwvsdeMH5-21" value="App Login" style="swimlane;html=1;startSize=20;horizontal=0;" parent="dNxyNK7c78bLwvsdeMH5-19" vertex="1">
          <mxGeometry x="20" y="120" width="1870" height="450" as="geometry" />
        </mxCell>
        <mxCell id="dNxyNK7c78bLwvsdeMH5-26" value="Recibir petición del cliente y devolver vista principal de inicio de sesión" style="rounded=0;whiteSpace=wrap;html=1;fontFamily=Helvetica;fontSize=12;fontColor=#000000;align=center;" parent="dNxyNK7c78bLwvsdeMH5-21" vertex="1">
          <mxGeometry x="101.25" y="30" width="127.5" height="80" as="geometry" />
        </mxCell>
        <mxCell id="ie9uYDda828ID7LDuINb-10" value="" style="edgeStyle=orthogonalEdgeStyle;rounded=0;orthogonalLoop=1;jettySize=auto;html=1;" parent="dNxyNK7c78bLwvsdeMH5-21" source="ie9uYDda828ID7LDuINb-6" target="ie9uYDda828ID7LDuINb-9" edge="1">
          <mxGeometry relative="1" as="geometry" />
        </mxCell>
        <mxCell id="ie9uYDda828ID7LDuINb-6" value="Capturar los datos del formulario" style="whiteSpace=wrap;html=1;fontColor=#000000;rounded=0;" parent="dNxyNK7c78bLwvsdeMH5-21" vertex="1">
          <mxGeometry x="474" y="40" width="120" height="60" as="geometry" />
        </mxCell>
        <mxCell id="ie9uYDda828ID7LDuINb-9" value="Tomar los datos e intentar conexión a la base de datos" style="whiteSpace=wrap;html=1;fontColor=#000000;rounded=0;" parent="dNxyNK7c78bLwvsdeMH5-21" vertex="1">
          <mxGeometry x="474" y="180" width="120" height="60" as="geometry" />
        </mxCell>
        <mxCell id="0r3g34Qntt7JTbyCVin9-16" style="edgeStyle=orthogonalEdgeStyle;rounded=0;orthogonalLoop=1;jettySize=auto;html=1;entryX=0.5;entryY=1;entryDx=0;entryDy=0;" parent="dNxyNK7c78bLwvsdeMH5-21" target="0r3g34Qntt7JTbyCVin9-8" edge="1">
          <mxGeometry relative="1" as="geometry">
            <mxPoint x="840" y="240" as="sourcePoint" />
          </mxGeometry>
        </mxCell>
        <mxCell id="0r3g34Qntt7JTbyCVin9-10" value="" style="edgeStyle=orthogonalEdgeStyle;rounded=0;orthogonalLoop=1;jettySize=auto;html=1;" parent="dNxyNK7c78bLwvsdeMH5-21" source="0r3g34Qntt7JTbyCVin9-8" target="0r3g34Qntt7JTbyCVin9-9" edge="1">
          <mxGeometry relative="1" as="geometry" />
        </mxCell>
        <mxCell id="0r3g34Qntt7JTbyCVin9-8" value="Capturar error y bloquear ejecución del programa" style="whiteSpace=wrap;html=1;fontColor=#000000;rounded=0;" parent="dNxyNK7c78bLwvsdeMH5-21" vertex="1">
          <mxGeometry x="780" y="130" width="120" height="60" as="geometry" />
        </mxCell>
        <mxCell id="0r3g34Qntt7JTbyCVin9-9" value="Redirigir al cliente a un error 500" style="whiteSpace=wrap;html=1;fontColor=#000000;rounded=0;" parent="dNxyNK7c78bLwvsdeMH5-21" vertex="1">
          <mxGeometry x="780" y="40" width="120" height="60" as="geometry" />
        </mxCell>
        <mxCell id="naPt3gZwbIzpCoT6_xjS-1" value="NO" style="text;html=1;strokeColor=none;fillColor=none;align=center;verticalAlign=middle;whiteSpace=wrap;rounded=0;" parent="dNxyNK7c78bLwvsdeMH5-21" vertex="1">
          <mxGeometry x="780" y="210" width="60" height="30" as="geometry" />
        </mxCell>
        <mxCell id="naPt3gZwbIzpCoT6_xjS-4" value="" style="edgeStyle=orthogonalEdgeStyle;rounded=0;orthogonalLoop=1;jettySize=auto;html=1;" parent="dNxyNK7c78bLwvsdeMH5-21" source="naPt3gZwbIzpCoT6_xjS-2" target="naPt3gZwbIzpCoT6_xjS-3" edge="1">
          <mxGeometry relative="1" as="geometry" />
        </mxCell>
        <mxCell id="naPt3gZwbIzpCoT6_xjS-2" value="¿Se tiene la interfaz con la BD?" style="points=[[0.25,0.25,0],[0.5,0,0],[0.75,0.25,0],[1,0.5,0],[0.75,0.75,0],[0.5,1,0],[0.25,0.75,0],[0,0.5,0]];shape=mxgraph.bpmn.gateway2;html=1;verticalLabelPosition=bottom;labelBackgroundColor=#ffffff;verticalAlign=top;align=center;perimeter=rhombusPerimeter;outlineConnect=0;outline=none;symbol=none;fillColor=#fff2cc;strokeColor=#d6b656;" parent="dNxyNK7c78bLwvsdeMH5-21" vertex="1">
          <mxGeometry x="800" y="240" width="80" height="80" as="geometry" />
        </mxCell>
        <mxCell id="naPt3gZwbIzpCoT6_xjS-3" value="Realizar consulta con los datos del usuario a la Base de datos" style="whiteSpace=wrap;html=1;verticalAlign=middle;labelBackgroundColor=#ffffff;" parent="dNxyNK7c78bLwvsdeMH5-21" vertex="1">
          <mxGeometry x="940" y="250" width="120" height="60" as="geometry" />
        </mxCell>
        <mxCell id="3atz7YG5cLwqBhQvLp4H-9" style="edgeStyle=orthogonalEdgeStyle;rounded=0;orthogonalLoop=1;jettySize=auto;html=1;entryX=0.5;entryY=1;entryDx=0;entryDy=0;" parent="dNxyNK7c78bLwvsdeMH5-21" source="3atz7YG5cLwqBhQvLp4H-5" target="3atz7YG5cLwqBhQvLp4H-10" edge="1">
          <mxGeometry relative="1" as="geometry">
            <mxPoint x="1180" y="80" as="targetPoint" />
            <Array as="points">
              <mxPoint x="1180" y="150" />
            </Array>
          </mxGeometry>
        </mxCell>
        <mxCell id="3atz7YG5cLwqBhQvLp4H-14" style="edgeStyle=orthogonalEdgeStyle;rounded=0;orthogonalLoop=1;jettySize=auto;html=1;entryX=0;entryY=0.5;entryDx=0;entryDy=0;" parent="dNxyNK7c78bLwvsdeMH5-21" source="3atz7YG5cLwqBhQvLp4H-5" target="3atz7YG5cLwqBhQvLp4H-13" edge="1">
          <mxGeometry relative="1" as="geometry" />
        </mxCell>
        <mxCell id="3atz7YG5cLwqBhQvLp4H-5" value="¿Se obtuvo respuesta de la consulta?" style="points=[[0.25,0.25,0],[0.5,0,0],[0.75,0.25,0],[1,0.5,0],[0.75,0.75,0],[0.5,1,0],[0.25,0.75,0],[0,0.5,0]];shape=mxgraph.bpmn.gateway2;html=1;verticalLabelPosition=bottom;labelBackgroundColor=#ffffff;verticalAlign=top;align=center;perimeter=rhombusPerimeter;outlineConnect=0;outline=none;symbol=none;fillColor=#fff2cc;strokeColor=#d6b656;" parent="dNxyNK7c78bLwvsdeMH5-21" vertex="1">
          <mxGeometry x="1140" y="240" width="80" height="80" as="geometry" />
        </mxCell>
        <mxCell id="3atz7YG5cLwqBhQvLp4H-10" value="Enviar mensaje a la interfaz de que no se encontró el usuario" style="whiteSpace=wrap;html=1;fontColor=#000000;rounded=0;" parent="dNxyNK7c78bLwvsdeMH5-21" vertex="1">
          <mxGeometry x="1120" y="30" width="120" height="60" as="geometry" />
        </mxCell>
        <mxCell id="3atz7YG5cLwqBhQvLp4H-12" value="NO" style="text;html=1;strokeColor=none;fillColor=none;align=center;verticalAlign=middle;whiteSpace=wrap;rounded=0;" parent="dNxyNK7c78bLwvsdeMH5-21" vertex="1">
          <mxGeometry x="1130" y="210" width="60" height="30" as="geometry" />
        </mxCell>
        <mxCell id="3atz7YG5cLwqBhQvLp4H-19" style="edgeStyle=orthogonalEdgeStyle;rounded=0;orthogonalLoop=1;jettySize=auto;html=1;entryX=0.5;entryY=1;entryDx=0;entryDy=0;entryPerimeter=0;" parent="dNxyNK7c78bLwvsdeMH5-21" source="3atz7YG5cLwqBhQvLp4H-13" target="3atz7YG5cLwqBhQvLp4H-16" edge="1">
          <mxGeometry relative="1" as="geometry" />
        </mxCell>
        <mxCell id="3atz7YG5cLwqBhQvLp4H-13" value="Realizar validaciones de datos de entrada y los recibidos en base de datos" style="whiteSpace=wrap;html=1;fontColor=#000000;rounded=0;" parent="dNxyNK7c78bLwvsdeMH5-21" vertex="1">
          <mxGeometry x="1320" y="250" width="120" height="60" as="geometry" />
        </mxCell>
        <mxCell id="3atz7YG5cLwqBhQvLp4H-15" value="SI" style="text;html=1;strokeColor=none;fillColor=none;align=center;verticalAlign=middle;whiteSpace=wrap;rounded=0;" parent="dNxyNK7c78bLwvsdeMH5-21" vertex="1">
          <mxGeometry x="1220" y="240" width="60" height="30" as="geometry" />
        </mxCell>
        <mxCell id="3atz7YG5cLwqBhQvLp4H-17" style="edgeStyle=orthogonalEdgeStyle;rounded=0;orthogonalLoop=1;jettySize=auto;html=1;entryX=0.5;entryY=1;entryDx=0;entryDy=0;" parent="dNxyNK7c78bLwvsdeMH5-21" source="3atz7YG5cLwqBhQvLp4H-16" target="3atz7YG5cLwqBhQvLp4H-10" edge="1">
          <mxGeometry relative="1" as="geometry" />
        </mxCell>
        <mxCell id="3atz7YG5cLwqBhQvLp4H-22" value="" style="edgeStyle=orthogonalEdgeStyle;rounded=0;orthogonalLoop=1;jettySize=auto;html=1;" parent="dNxyNK7c78bLwvsdeMH5-21" source="3atz7YG5cLwqBhQvLp4H-16" target="3atz7YG5cLwqBhQvLp4H-21" edge="1">
          <mxGeometry relative="1" as="geometry" />
        </mxCell>
        <mxCell id="3atz7YG5cLwqBhQvLp4H-16" value="¿Los datos concuerdan?" style="points=[[0.25,0.25,0],[0.5,0,0],[0.75,0.25,0],[1,0.5,0],[0.75,0.75,0],[0.5,1,0],[0.25,0.75,0],[0,0.5,0]];shape=mxgraph.bpmn.gateway2;html=1;verticalLabelPosition=bottom;labelBackgroundColor=#ffffff;verticalAlign=top;align=center;perimeter=rhombusPerimeter;outlineConnect=0;outline=none;symbol=none;fillColor=#fff2cc;strokeColor=#d6b656;" parent="dNxyNK7c78bLwvsdeMH5-21" vertex="1">
          <mxGeometry x="1330" y="130" width="80" height="80" as="geometry" />
        </mxCell>
        <mxCell id="3atz7YG5cLwqBhQvLp4H-18" value="NO" style="text;html=1;strokeColor=none;fillColor=none;align=center;verticalAlign=middle;whiteSpace=wrap;rounded=0;" parent="dNxyNK7c78bLwvsdeMH5-21" vertex="1">
          <mxGeometry x="1270" y="130" width="60" height="30" as="geometry" />
        </mxCell>
        <mxCell id="3atz7YG5cLwqBhQvLp4H-24" value="" style="edgeStyle=orthogonalEdgeStyle;rounded=0;orthogonalLoop=1;jettySize=auto;html=1;" parent="dNxyNK7c78bLwvsdeMH5-21" source="3atz7YG5cLwqBhQvLp4H-21" target="3atz7YG5cLwqBhQvLp4H-23" edge="1">
          <mxGeometry relative="1" as="geometry" />
        </mxCell>
        <mxCell id="3atz7YG5cLwqBhQvLp4H-21" value="Crear sesión para el usuario" style="whiteSpace=wrap;html=1;verticalAlign=middle;labelBackgroundColor=#ffffff;" parent="dNxyNK7c78bLwvsdeMH5-21" vertex="1">
          <mxGeometry x="1470" y="140" width="120" height="60" as="geometry" />
        </mxCell>
        <mxCell id="3atz7YG5cLwqBhQvLp4H-23" value="Retornar vista de bienvenida al usuario según su rol" style="whiteSpace=wrap;html=1;labelBackgroundColor=#ffffff;" parent="dNxyNK7c78bLwvsdeMH5-21" vertex="1">
          <mxGeometry x="1670" y="140" width="120" height="60" as="geometry" />
        </mxCell>
        <mxCell id="9AvY9kHoSvMz7FLQ1HXK-1" value="SI" style="text;html=1;strokeColor=none;fillColor=none;align=center;verticalAlign=middle;whiteSpace=wrap;rounded=0;" parent="dNxyNK7c78bLwvsdeMH5-21" vertex="1">
          <mxGeometry x="870" y="240" width="60" height="30" as="geometry" />
        </mxCell>
        <mxCell id="p8QGFm82iy9ltt3dPjO2-2" style="edgeStyle=orthogonalEdgeStyle;rounded=0;orthogonalLoop=1;jettySize=auto;html=1;entryX=0;entryY=0.5;entryDx=0;entryDy=0;entryPerimeter=0;" parent="dNxyNK7c78bLwvsdeMH5-21" source="7wNE3LtI7OHBp4aOgMFI-1" target="naPt3gZwbIzpCoT6_xjS-2" edge="1">
          <mxGeometry relative="1" as="geometry" />
        </mxCell>
        <mxCell id="7wNE3LtI7OHBp4aOgMFI-1" value="Sub Validar Conexión BD" style="points=[[0.25,0,0],[0.5,0,0],[0.75,0,0],[1,0.25,0],[1,0.5,0],[1,0.75,0],[0.75,1,0],[0.5,1,0],[0.25,1,0],[0,0.75,0],[0,0.5,0],[0,0.25,0]];shape=mxgraph.bpmn.task;whiteSpace=wrap;rectStyle=rounded;size=10;html=1;container=1;expand=0;collapsible=0;taskMarker=abstract;isLoopSub=1;" parent="dNxyNK7c78bLwvsdeMH5-21" vertex="1">
          <mxGeometry x="600" y="240" width="120" height="80" as="geometry" />
        </mxCell>
        <mxCell id="AOcvK27VYrzRmsZClEv_-6" style="edgeStyle=orthogonalEdgeStyle;rounded=0;orthogonalLoop=1;jettySize=auto;html=1;entryX=0.5;entryY=1;entryDx=0;entryDy=0;entryPerimeter=0;" parent="dNxyNK7c78bLwvsdeMH5-21" source="AOcvK27VYrzRmsZClEv_-4" target="3atz7YG5cLwqBhQvLp4H-5" edge="1">
          <mxGeometry relative="1" as="geometry" />
        </mxCell>
        <mxCell id="AOcvK27VYrzRmsZClEv_-4" value="Obtener resultados" style="whiteSpace=wrap;html=1;labelBackgroundColor=#ffffff;" parent="dNxyNK7c78bLwvsdeMH5-21" vertex="1">
          <mxGeometry x="1120" y="370" width="120" height="60" as="geometry" />
        </mxCell>
        <mxCell id="dNxyNK7c78bLwvsdeMH5-22" value="Base de datos" style="swimlane;html=1;startSize=20;horizontal=0;" parent="dNxyNK7c78bLwvsdeMH5-19" vertex="1">
          <mxGeometry x="20" y="570" width="1870" height="180" as="geometry" />
        </mxCell>
        <mxCell id="ie9uYDda828ID7LDuINb-31" value="Sub-Conectar App y BD" style="points=[[0.25,0,0],[0.5,0,0],[0.75,0,0],[1,0.25,0],[1,0.5,0],[1,0.75,0],[0.75,1,0],[0.5,1,0],[0.25,1,0],[0,0.75,0],[0,0.5,0],[0,0.25,0]];shape=mxgraph.bpmn.task;whiteSpace=wrap;rectStyle=rounded;size=10;html=1;container=1;expand=0;collapsible=0;taskMarker=abstract;isLoopSub=1;" parent="dNxyNK7c78bLwvsdeMH5-22" vertex="1">
          <mxGeometry x="474" y="60" width="120" height="80" as="geometry" />
        </mxCell>
        <mxCell id="AOcvK27VYrzRmsZClEv_-1" value="Realizar operación en la base de datos" style="whiteSpace=wrap;html=1;labelBackgroundColor=#ffffff;" parent="dNxyNK7c78bLwvsdeMH5-22" vertex="1">
          <mxGeometry x="940" y="60" width="120" height="60" as="geometry" />
        </mxCell>
        <mxCell id="p8QGFm82iy9ltt3dPjO2-1" style="edgeStyle=orthogonalEdgeStyle;rounded=0;orthogonalLoop=1;jettySize=auto;html=1;entryX=0.5;entryY=1;entryDx=0;entryDy=0;entryPerimeter=0;dashed=1;" parent="dNxyNK7c78bLwvsdeMH5-19" source="ie9uYDda828ID7LDuINb-31" target="7wNE3LtI7OHBp4aOgMFI-1" edge="1">
          <mxGeometry relative="1" as="geometry" />
        </mxCell>
        <mxCell id="AOcvK27VYrzRmsZClEv_-2" value="" style="edgeStyle=orthogonalEdgeStyle;rounded=0;orthogonalLoop=1;jettySize=auto;html=1;dashed=1;" parent="dNxyNK7c78bLwvsdeMH5-19" source="naPt3gZwbIzpCoT6_xjS-3" target="AOcvK27VYrzRmsZClEv_-1" edge="1">
          <mxGeometry relative="1" as="geometry" />
        </mxCell>
        <mxCell id="AOcvK27VYrzRmsZClEv_-5" style="edgeStyle=orthogonalEdgeStyle;rounded=0;orthogonalLoop=1;jettySize=auto;html=1;entryX=0.5;entryY=1;entryDx=0;entryDy=0;dashed=1;" parent="dNxyNK7c78bLwvsdeMH5-19" source="AOcvK27VYrzRmsZClEv_-1" target="AOcvK27VYrzRmsZClEv_-4" edge="1">
          <mxGeometry relative="1" as="geometry" />
        </mxCell>
      </root>
    </mxGraphModel>
  </diagram>
  <diagram id="obKSEVM9eIuDIFUWVhde" name="Interacción con la app">
    <mxGraphModel dx="1393" dy="835" grid="1" gridSize="10" guides="1" tooltips="1" connect="1" arrows="1" fold="1" page="1" pageScale="1" pageWidth="827" pageHeight="1169" math="0" shadow="0">
      <root>
        <mxCell id="0" />
        <mxCell id="1" parent="0" />
        <mxCell id="3XjrPQvogkhPmzdNb6Wd-1" value="Operaciones según Rol" style="swimlane;html=1;childLayout=stackLayout;resizeParent=1;resizeParentMax=0;horizontal=0;startSize=20;horizontalStack=0;" parent="1" vertex="1">
          <mxGeometry x="200" y="120" width="1530" height="600" as="geometry" />
        </mxCell>
        <mxCell id="3XjrPQvogkhPmzdNb6Wd-3" value="Cliente" style="swimlane;html=1;startSize=20;horizontal=0;" parent="3XjrPQvogkhPmzdNb6Wd-1" vertex="1">
          <mxGeometry x="20" width="1510" height="370" as="geometry" />
        </mxCell>
        <mxCell id="3XjrPQvogkhPmzdNb6Wd-4" value="" style="edgeStyle=orthogonalEdgeStyle;rounded=0;orthogonalLoop=1;jettySize=auto;html=1;entryX=0;entryY=0.5;entryDx=0;entryDy=0;entryPerimeter=0;" parent="3XjrPQvogkhPmzdNb6Wd-3" source="3XjrPQvogkhPmzdNb6Wd-5" target="BaQbBJLhc9pWL1DfynCS-2" edge="1">
          <mxGeometry relative="1" as="geometry">
            <mxPoint x="120" y="60.000000000000114" as="targetPoint" />
          </mxGeometry>
        </mxCell>
        <mxCell id="3XjrPQvogkhPmzdNb6Wd-5" value="" style="ellipse;whiteSpace=wrap;html=1;fillColor=#d5e8d4;strokeColor=#82b366;" parent="3XjrPQvogkhPmzdNb6Wd-3" vertex="1">
          <mxGeometry x="40" y="40" width="40" height="40" as="geometry" />
        </mxCell>
        <mxCell id="BaQbBJLhc9pWL1DfynCS-2" value="Ingresar al sistema" style="points=[[0.25,0,0],[0.5,0,0],[0.75,0,0],[1,0.25,0],[1,0.5,0],[1,0.75,0],[0.75,1,0],[0.5,1,0],[0.25,1,0],[0,0.75,0],[0,0.5,0],[0,0.25,0]];shape=mxgraph.bpmn.task;whiteSpace=wrap;rectStyle=rounded;size=10;html=1;container=1;expand=0;collapsible=0;taskMarker=businessRule;" parent="3XjrPQvogkhPmzdNb6Wd-3" vertex="1">
          <mxGeometry x="110" y="20" width="120" height="80" as="geometry" />
        </mxCell>
        <mxCell id="YPDzsl-vdx2BAaPQezgx-4" value="" style="edgeStyle=orthogonalEdgeStyle;rounded=0;orthogonalLoop=1;jettySize=auto;html=1;" parent="3XjrPQvogkhPmzdNb6Wd-3" source="QJo1DK3dV9DLlOSHX9jL-5" target="YPDzsl-vdx2BAaPQezgx-3" edge="1">
          <mxGeometry relative="1" as="geometry" />
        </mxCell>
        <mxCell id="QJo1DK3dV9DLlOSHX9jL-5" value="¿El usuario desea salir de la app?" style="points=[[0.25,0.25,0],[0.5,0,0],[0.75,0.25,0],[1,0.5,0],[0.75,0.75,0],[0.5,1,0],[0.25,0.75,0],[0,0.5,0]];shape=mxgraph.bpmn.gateway2;html=1;verticalLabelPosition=bottom;labelBackgroundColor=#ffffff;verticalAlign=top;align=center;perimeter=rhombusPerimeter;outlineConnect=0;outline=none;symbol=none;fillColor=#fff2cc;strokeColor=#d6b656;" parent="3XjrPQvogkhPmzdNb6Wd-3" vertex="1">
          <mxGeometry x="910" y="160" width="80" height="80" as="geometry" />
        </mxCell>
        <mxCell id="YPDzsl-vdx2BAaPQezgx-1" value="NO" style="text;html=1;strokeColor=none;fillColor=none;align=center;verticalAlign=middle;whiteSpace=wrap;rounded=0;" parent="3XjrPQvogkhPmzdNb6Wd-3" vertex="1">
          <mxGeometry x="830" y="150" width="60" height="30" as="geometry" />
        </mxCell>
        <mxCell id="YPDzsl-vdx2BAaPQezgx-2" value="SI" style="text;html=1;strokeColor=none;fillColor=none;align=center;verticalAlign=middle;whiteSpace=wrap;rounded=0;" parent="3XjrPQvogkhPmzdNb6Wd-3" vertex="1">
          <mxGeometry x="980" y="140" width="60" height="30" as="geometry" />
        </mxCell>
        <mxCell id="YPDzsl-vdx2BAaPQezgx-3" value="Selecciona el botón de cerrar sesión" style="whiteSpace=wrap;html=1;verticalAlign=middle;labelBackgroundColor=#ffffff;" parent="3XjrPQvogkhPmzdNb6Wd-3" vertex="1">
          <mxGeometry x="1140" y="170" width="120" height="60" as="geometry" />
        </mxCell>
        <mxCell id="YPDzsl-vdx2BAaPQezgx-14" value="" style="edgeStyle=orthogonalEdgeStyle;rounded=0;orthogonalLoop=1;jettySize=auto;html=1;" parent="3XjrPQvogkhPmzdNb6Wd-3" source="YPDzsl-vdx2BAaPQezgx-11" target="YPDzsl-vdx2BAaPQezgx-13" edge="1">
          <mxGeometry relative="1" as="geometry" />
        </mxCell>
        <mxCell id="YPDzsl-vdx2BAaPQezgx-11" value="Ver vista principal" style="whiteSpace=wrap;html=1;labelBackgroundColor=#ffffff;" parent="3XjrPQvogkhPmzdNb6Wd-3" vertex="1">
          <mxGeometry x="1340" y="230" width="120" height="60" as="geometry" />
        </mxCell>
        <mxCell id="YPDzsl-vdx2BAaPQezgx-13" value="" style="ellipse;whiteSpace=wrap;html=1;labelBackgroundColor=#ffffff;fillColor=#f8cecc;strokeColor=#b85450;" parent="3XjrPQvogkhPmzdNb6Wd-3" vertex="1">
          <mxGeometry x="1360" y="80" width="80" height="80" as="geometry" />
        </mxCell>
        <mxCell id="3XjrPQvogkhPmzdNb6Wd-20" value="App Login" style="swimlane;html=1;startSize=20;horizontal=0;" parent="3XjrPQvogkhPmzdNb6Wd-1" vertex="1">
          <mxGeometry x="20" y="370" width="1510" height="230" as="geometry" />
        </mxCell>
        <mxCell id="3XjrPQvogkhPmzdNb6Wd-43" value="SI" style="text;html=1;strokeColor=none;fillColor=none;align=center;verticalAlign=middle;whiteSpace=wrap;rounded=0;" parent="3XjrPQvogkhPmzdNb6Wd-20" vertex="1">
          <mxGeometry x="1120" y="240" width="60" height="30" as="geometry" />
        </mxCell>
        <mxCell id="CLEXKGb8Jb5DGYY6fhwY-8" value="Interacción usuario administrador" style="points=[[0.25,0,0],[0.5,0,0],[0.75,0,0],[1,0.25,0],[1,0.5,0],[1,0.75,0],[0.75,1,0],[0.5,1,0],[0.25,1,0],[0,0.75,0],[0,0.5,0],[0,0.25,0]];shape=mxgraph.bpmn.task;whiteSpace=wrap;rectStyle=rounded;size=10;html=1;container=1;expand=0;collapsible=0;taskMarker=businessRule;" parent="3XjrPQvogkhPmzdNb6Wd-20" vertex="1">
          <mxGeometry x="700" y="120" width="120" height="80" as="geometry" />
        </mxCell>
        <mxCell id="CLEXKGb8Jb5DGYY6fhwY-7" value="Interacción usuario general" style="points=[[0.25,0,0],[0.5,0,0],[0.75,0,0],[1,0.25,0],[1,0.5,0],[1,0.75,0],[0.75,1,0],[0.5,1,0],[0.25,1,0],[0,0.75,0],[0,0.5,0],[0,0.25,0]];shape=mxgraph.bpmn.task;whiteSpace=wrap;rectStyle=rounded;size=10;html=1;container=1;expand=0;collapsible=0;taskMarker=businessRule;" parent="3XjrPQvogkhPmzdNb6Wd-20" vertex="1">
          <mxGeometry x="700" y="20" width="120" height="80" as="geometry" />
        </mxCell>
        <mxCell id="QJo1DK3dV9DLlOSHX9jL-8" style="edgeStyle=orthogonalEdgeStyle;rounded=0;orthogonalLoop=1;jettySize=auto;html=1;entryX=0;entryY=0.5;entryDx=0;entryDy=0;entryPerimeter=0;" parent="3XjrPQvogkhPmzdNb6Wd-20" source="QJo1DK3dV9DLlOSHX9jL-1" target="QJo1DK3dV9DLlOSHX9jL-7" edge="1">
          <mxGeometry relative="1" as="geometry" />
        </mxCell>
        <mxCell id="QJo1DK3dV9DLlOSHX9jL-1" value="Mostrar opciones según tipo de usuario" style="whiteSpace=wrap;html=1;labelBackgroundColor=#ffffff;" parent="3XjrPQvogkhPmzdNb6Wd-20" vertex="1">
          <mxGeometry x="110" y="85" width="120" height="60" as="geometry" />
        </mxCell>
        <mxCell id="QJo1DK3dV9DLlOSHX9jL-7" value="¿El usuario tiene rol general o administrador?" style="points=[[0.25,0.25,0],[0.5,0,0],[0.75,0.25,0],[1,0.5,0],[0.75,0.75,0],[0.5,1,0],[0.25,0.75,0],[0,0.5,0]];shape=mxgraph.bpmn.gateway2;html=1;verticalLabelPosition=bottom;labelBackgroundColor=#ffffff;verticalAlign=top;align=center;perimeter=rhombusPerimeter;outlineConnect=0;outline=none;symbol=none;fillColor=#fff2cc;strokeColor=#d6b656;" parent="3XjrPQvogkhPmzdNb6Wd-20" vertex="1">
          <mxGeometry x="340" y="94.5" width="80" height="80" as="geometry" />
        </mxCell>
        <mxCell id="CLEXKGb8Jb5DGYY6fhwY-6" value="" style="edgeStyle=orthogonalEdgeStyle;rounded=0;orthogonalLoop=1;jettySize=auto;html=1;entryX=0;entryY=0.5;entryDx=0;entryDy=0;entryPerimeter=0;exitX=0.5;exitY=0;exitDx=0;exitDy=0;exitPerimeter=0;" parent="3XjrPQvogkhPmzdNb6Wd-20" source="QJo1DK3dV9DLlOSHX9jL-7" target="CLEXKGb8Jb5DGYY6fhwY-7" edge="1">
          <mxGeometry relative="1" as="geometry">
            <mxPoint x="510" y="-140" as="sourcePoint" />
            <mxPoint x="690" y="-210" as="targetPoint" />
            <Array as="points">
              <mxPoint x="420" y="75" />
              <mxPoint x="420" y="30" />
              <mxPoint x="560" y="30" />
              <mxPoint x="560" y="60" />
            </Array>
          </mxGeometry>
        </mxCell>
        <mxCell id="QJo1DK3dV9DLlOSHX9jL-2" style="edgeStyle=orthogonalEdgeStyle;rounded=0;orthogonalLoop=1;jettySize=auto;html=1;entryX=0;entryY=0.5;entryDx=0;entryDy=0;entryPerimeter=0;exitX=1;exitY=0.5;exitDx=0;exitDy=0;exitPerimeter=0;" parent="3XjrPQvogkhPmzdNb6Wd-20" source="QJo1DK3dV9DLlOSHX9jL-7" target="CLEXKGb8Jb5DGYY6fhwY-8" edge="1">
          <mxGeometry relative="1" as="geometry" />
        </mxCell>
        <mxCell id="CLEXKGb8Jb5DGYY6fhwY-2" value="General" style="text;html=1;strokeColor=none;fillColor=none;align=center;verticalAlign=middle;whiteSpace=wrap;rounded=0;" parent="3XjrPQvogkhPmzdNb6Wd-20" vertex="1">
          <mxGeometry x="310" y="64.5" width="60" height="30" as="geometry" />
        </mxCell>
        <mxCell id="CLEXKGb8Jb5DGYY6fhwY-1" value="Administrador" style="text;html=1;strokeColor=none;fillColor=none;align=center;verticalAlign=middle;whiteSpace=wrap;rounded=0;" parent="3XjrPQvogkhPmzdNb6Wd-20" vertex="1">
          <mxGeometry x="430" y="140" width="60" height="30" as="geometry" />
        </mxCell>
        <mxCell id="YPDzsl-vdx2BAaPQezgx-10" value="" style="edgeStyle=orthogonalEdgeStyle;rounded=0;orthogonalLoop=1;jettySize=auto;html=1;" parent="3XjrPQvogkhPmzdNb6Wd-20" source="YPDzsl-vdx2BAaPQezgx-7" target="YPDzsl-vdx2BAaPQezgx-9" edge="1">
          <mxGeometry relative="1" as="geometry" />
        </mxCell>
        <mxCell id="YPDzsl-vdx2BAaPQezgx-7" value="Cerrar sesión" style="whiteSpace=wrap;html=1;labelBackgroundColor=#ffffff;" parent="3XjrPQvogkhPmzdNb6Wd-20" vertex="1">
          <mxGeometry x="1140" y="65" width="120" height="60" as="geometry" />
        </mxCell>
        <mxCell id="YPDzsl-vdx2BAaPQezgx-9" value="Retornar vista principal de inicio de sesión" style="whiteSpace=wrap;html=1;labelBackgroundColor=#ffffff;" parent="3XjrPQvogkhPmzdNb6Wd-20" vertex="1">
          <mxGeometry x="1340" y="65" width="120" height="60" as="geometry" />
        </mxCell>
        <mxCell id="QJo1DK3dV9DLlOSHX9jL-6" style="edgeStyle=orthogonalEdgeStyle;rounded=0;orthogonalLoop=1;jettySize=auto;html=1;entryX=0.5;entryY=1;entryDx=0;entryDy=0;entryPerimeter=0;dashed=1;" parent="3XjrPQvogkhPmzdNb6Wd-1" source="CLEXKGb8Jb5DGYY6fhwY-8" target="QJo1DK3dV9DLlOSHX9jL-5" edge="1">
          <mxGeometry relative="1" as="geometry" />
        </mxCell>
        <mxCell id="QJo1DK3dV9DLlOSHX9jL-4" value="" style="edgeStyle=orthogonalEdgeStyle;rounded=0;orthogonalLoop=1;jettySize=auto;html=1;dashed=1;" parent="3XjrPQvogkhPmzdNb6Wd-1" source="CLEXKGb8Jb5DGYY6fhwY-7" target="QJo1DK3dV9DLlOSHX9jL-5" edge="1">
          <mxGeometry relative="1" as="geometry">
            <mxPoint x="999" y="270" as="targetPoint" />
          </mxGeometry>
        </mxCell>
        <mxCell id="BaQbBJLhc9pWL1DfynCS-9" value="" style="edgeStyle=orthogonalEdgeStyle;rounded=0;orthogonalLoop=1;jettySize=auto;html=1;dashed=1;entryX=0.5;entryY=0;entryDx=0;entryDy=0;exitX=0.5;exitY=1;exitDx=0;exitDy=0;exitPerimeter=0;" parent="3XjrPQvogkhPmzdNb6Wd-1" source="BaQbBJLhc9pWL1DfynCS-2" target="QJo1DK3dV9DLlOSHX9jL-1" edge="1">
          <mxGeometry relative="1" as="geometry">
            <mxPoint x="240" y="340" as="sourcePoint" />
            <mxPoint x="750" y="160" as="targetPoint" />
          </mxGeometry>
        </mxCell>
        <mxCell id="QJo1DK3dV9DLlOSHX9jL-9" style="edgeStyle=orthogonalEdgeStyle;rounded=0;orthogonalLoop=1;jettySize=auto;html=1;entryX=0.5;entryY=0;entryDx=0;entryDy=0;dashed=1;" parent="3XjrPQvogkhPmzdNb6Wd-1" source="QJo1DK3dV9DLlOSHX9jL-5" target="QJo1DK3dV9DLlOSHX9jL-1" edge="1">
          <mxGeometry relative="1" as="geometry" />
        </mxCell>
        <mxCell id="YPDzsl-vdx2BAaPQezgx-8" value="" style="edgeStyle=orthogonalEdgeStyle;rounded=0;orthogonalLoop=1;jettySize=auto;html=1;" parent="3XjrPQvogkhPmzdNb6Wd-1" source="YPDzsl-vdx2BAaPQezgx-3" target="YPDzsl-vdx2BAaPQezgx-7" edge="1">
          <mxGeometry relative="1" as="geometry" />
        </mxCell>
        <mxCell id="YPDzsl-vdx2BAaPQezgx-12" value="" style="edgeStyle=orthogonalEdgeStyle;rounded=0;orthogonalLoop=1;jettySize=auto;html=1;" parent="3XjrPQvogkhPmzdNb6Wd-1" source="YPDzsl-vdx2BAaPQezgx-9" target="YPDzsl-vdx2BAaPQezgx-11" edge="1">
          <mxGeometry relative="1" as="geometry" />
        </mxCell>
      </root>
    </mxGraphModel>
  </diagram>
  <diagram id="oq3m5g7z1J3qcQ3_hNSv" name="Interacción usuario general">
    <mxGraphModel dx="1639" dy="982" grid="1" gridSize="10" guides="1" tooltips="1" connect="1" arrows="1" fold="1" page="1" pageScale="1" pageWidth="827" pageHeight="1169" math="0" shadow="0">
      <root>
        <mxCell id="0" />
        <mxCell id="1" parent="0" />
        <mxCell id="5sVSLcRkrUw4bLYzdGhR-1" value="Interacción usuario general" style="swimlane;html=1;childLayout=stackLayout;resizeParent=1;resizeParentMax=0;horizontal=0;startSize=20;horizontalStack=0;" parent="1" vertex="1">
          <mxGeometry x="200" y="40" width="2550" height="1010" as="geometry" />
        </mxCell>
        <mxCell id="5sVSLcRkrUw4bLYzdGhR-3" value="Cliente" style="swimlane;html=1;startSize=20;horizontal=0;" parent="5sVSLcRkrUw4bLYzdGhR-1" vertex="1">
          <mxGeometry x="20" width="2530" height="380" as="geometry" />
        </mxCell>
        <mxCell id="5sVSLcRkrUw4bLYzdGhR-4" value="" style="edgeStyle=orthogonalEdgeStyle;rounded=0;orthogonalLoop=1;jettySize=auto;html=1;" parent="5sVSLcRkrUw4bLYzdGhR-3" source="5sVSLcRkrUw4bLYzdGhR-5" target="5sVSLcRkrUw4bLYzdGhR-7" edge="1">
          <mxGeometry relative="1" as="geometry" />
        </mxCell>
        <mxCell id="5sVSLcRkrUw4bLYzdGhR-5" value="" style="ellipse;whiteSpace=wrap;html=1;fillColor=#d5e8d4;strokeColor=#82b366;" parent="5sVSLcRkrUw4bLYzdGhR-3" vertex="1">
          <mxGeometry x="40" y="40" width="40" height="40" as="geometry" />
        </mxCell>
        <mxCell id="5sVSLcRkrUw4bLYzdGhR-6" style="edgeStyle=orthogonalEdgeStyle;rounded=0;orthogonalLoop=1;jettySize=auto;html=1;entryX=0;entryY=0.5;entryDx=0;entryDy=0;" parent="5sVSLcRkrUw4bLYzdGhR-3" source="5sVSLcRkrUw4bLYzdGhR-7" target="5sVSLcRkrUw4bLYzdGhR-9" edge="1">
          <mxGeometry relative="1" as="geometry" />
        </mxCell>
        <mxCell id="5sVSLcRkrUw4bLYzdGhR-7" value="Ver la vista de opciones" style="rounded=0;whiteSpace=wrap;html=1;fontFamily=Helvetica;fontSize=12;fontColor=#000000;align=center;" parent="5sVSLcRkrUw4bLYzdGhR-3" vertex="1">
          <mxGeometry x="120" y="30" width="90" height="60" as="geometry" />
        </mxCell>
        <mxCell id="5sVSLcRkrUw4bLYzdGhR-9" value="Seleccionar una opción" style="whiteSpace=wrap;html=1;fontColor=#000000;rounded=0;" parent="5sVSLcRkrUw4bLYzdGhR-3" vertex="1">
          <mxGeometry x="274" y="30" width="120" height="60" as="geometry" />
        </mxCell>
        <mxCell id="5sVSLcRkrUw4bLYzdGhR-11" value="" style="edgeStyle=orthogonalEdgeStyle;rounded=0;orthogonalLoop=1;jettySize=auto;html=1;" parent="5sVSLcRkrUw4bLYzdGhR-3" source="5sVSLcRkrUw4bLYzdGhR-12" target="5sVSLcRkrUw4bLYzdGhR-13" edge="1">
          <mxGeometry relative="1" as="geometry" />
        </mxCell>
        <mxCell id="5sVSLcRkrUw4bLYzdGhR-12" value="Ver respuesta de servidor" style="whiteSpace=wrap;html=1;fontColor=#000000;rounded=0;" parent="5sVSLcRkrUw4bLYzdGhR-3" vertex="1">
          <mxGeometry x="850" y="70" width="120" height="60" as="geometry" />
        </mxCell>
        <mxCell id="5sVSLcRkrUw4bLYzdGhR-13" value="" style="ellipse;whiteSpace=wrap;html=1;rounded=0;fillColor=#f8cecc;strokeColor=#b85450;" parent="5sVSLcRkrUw4bLYzdGhR-3" vertex="1">
          <mxGeometry x="1100" y="60" width="80" height="80" as="geometry" />
        </mxCell>
        <mxCell id="TACb4A-l2PN4fmE-W4P7-31" value="" style="edgeStyle=orthogonalEdgeStyle;rounded=0;orthogonalLoop=1;jettySize=auto;html=1;entryX=0;entryY=0.5;entryDx=0;entryDy=0;entryPerimeter=0;" parent="5sVSLcRkrUw4bLYzdGhR-3" source="TACb4A-l2PN4fmE-W4P7-28" target="TACb4A-l2PN4fmE-W4P7-32" edge="1">
          <mxGeometry relative="1" as="geometry">
            <mxPoint x="1700" y="100" as="targetPoint" />
          </mxGeometry>
        </mxCell>
        <mxCell id="TACb4A-l2PN4fmE-W4P7-28" value="Ver vista de perfil" style="whiteSpace=wrap;html=1;fontColor=#000000;rounded=0;" parent="5sVSLcRkrUw4bLYzdGhR-3" vertex="1">
          <mxGeometry x="1500" y="70" width="120" height="60" as="geometry" />
        </mxCell>
        <mxCell id="TACb4A-l2PN4fmE-W4P7-34" value="" style="edgeStyle=orthogonalEdgeStyle;rounded=0;orthogonalLoop=1;jettySize=auto;html=1;entryX=0.5;entryY=0;entryDx=0;entryDy=0;entryPerimeter=0;" parent="5sVSLcRkrUw4bLYzdGhR-3" source="TACb4A-l2PN4fmE-W4P7-32" target="TACb4A-l2PN4fmE-W4P7-36" edge="1">
          <mxGeometry relative="1" as="geometry">
            <mxPoint x="1870" y="100" as="targetPoint" />
          </mxGeometry>
        </mxCell>
        <mxCell id="TACb4A-l2PN4fmE-W4P7-48" style="edgeStyle=orthogonalEdgeStyle;rounded=0;orthogonalLoop=1;jettySize=auto;html=1;exitX=0.5;exitY=0;exitDx=0;exitDy=0;exitPerimeter=0;entryX=0.5;entryY=0;entryDx=0;entryDy=0;" parent="5sVSLcRkrUw4bLYzdGhR-3" source="TACb4A-l2PN4fmE-W4P7-32" target="TACb4A-l2PN4fmE-W4P7-50" edge="1">
          <mxGeometry relative="1" as="geometry">
            <mxPoint x="2170" y="90" as="targetPoint" />
            <Array as="points">
              <mxPoint x="1750" y="40" />
              <mxPoint x="2170" y="40" />
            </Array>
          </mxGeometry>
        </mxCell>
        <mxCell id="TACb4A-l2PN4fmE-W4P7-32" value="¿Se desea actualizar datos posibles?" style="points=[[0.25,0.25,0],[0.5,0,0],[0.75,0.25,0],[1,0.5,0],[0.75,0.75,0],[0.5,1,0],[0.25,0.75,0],[0,0.5,0]];shape=mxgraph.bpmn.gateway2;html=1;verticalLabelPosition=bottom;labelBackgroundColor=#ffffff;verticalAlign=top;align=center;perimeter=rhombusPerimeter;outlineConnect=0;outline=none;symbol=none;fillColor=#fff2cc;strokeColor=#d6b656;" parent="5sVSLcRkrUw4bLYzdGhR-3" vertex="1">
          <mxGeometry x="1710" y="60" width="80" height="80" as="geometry" />
        </mxCell>
        <mxCell id="TACb4A-l2PN4fmE-W4P7-35" value="NO" style="text;html=1;strokeColor=none;fillColor=none;align=center;verticalAlign=middle;whiteSpace=wrap;rounded=0;" parent="5sVSLcRkrUw4bLYzdGhR-3" vertex="1">
          <mxGeometry x="1770" y="100" width="60" height="30" as="geometry" />
        </mxCell>
        <mxCell id="TACb4A-l2PN4fmE-W4P7-40" style="edgeStyle=orthogonalEdgeStyle;rounded=0;orthogonalLoop=1;jettySize=auto;html=1;entryX=1;entryY=0.5;entryDx=0;entryDy=0;" parent="5sVSLcRkrUw4bLYzdGhR-3" source="TACb4A-l2PN4fmE-W4P7-36" target="TACb4A-l2PN4fmE-W4P7-39" edge="1">
          <mxGeometry relative="1" as="geometry" />
        </mxCell>
        <mxCell id="TACb4A-l2PN4fmE-W4P7-43" value="" style="edgeStyle=orthogonalEdgeStyle;rounded=0;orthogonalLoop=1;jettySize=auto;html=1;entryX=0.5;entryY=0;entryDx=0;entryDy=0;" parent="5sVSLcRkrUw4bLYzdGhR-3" source="TACb4A-l2PN4fmE-W4P7-36" target="TACb4A-l2PN4fmE-W4P7-28" edge="1">
          <mxGeometry relative="1" as="geometry">
            <mxPoint x="2030" y="230" as="targetPoint" />
            <Array as="points">
              <mxPoint x="2000" y="230" />
              <mxPoint x="2000" y="20" />
              <mxPoint x="1560" y="20" />
            </Array>
          </mxGeometry>
        </mxCell>
        <mxCell id="TACb4A-l2PN4fmE-W4P7-36" value="¿Se desea salir de la app?" style="points=[[0.25,0.25,0],[0.5,0,0],[0.75,0.25,0],[1,0.5,0],[0.75,0.75,0],[0.5,1,0],[0.25,0.75,0],[0,0.5,0]];shape=mxgraph.bpmn.gateway2;html=1;verticalLabelPosition=bottom;labelBackgroundColor=#ffffff;verticalAlign=top;align=center;perimeter=rhombusPerimeter;outlineConnect=0;outline=none;symbol=none;fillColor=#fff2cc;strokeColor=#d6b656;" parent="5sVSLcRkrUw4bLYzdGhR-3" vertex="1">
          <mxGeometry x="1870" y="190" width="80" height="80" as="geometry" />
        </mxCell>
        <mxCell id="TACb4A-l2PN4fmE-W4P7-39" value="Seleccionar botón de cerrar sesión" style="whiteSpace=wrap;html=1;fontColor=#000000;rounded=0;" parent="5sVSLcRkrUw4bLYzdGhR-3" vertex="1">
          <mxGeometry x="1380" y="200" width="120" height="60" as="geometry" />
        </mxCell>
        <mxCell id="TACb4A-l2PN4fmE-W4P7-44" value="NO" style="text;html=1;strokeColor=none;fillColor=none;align=center;verticalAlign=middle;whiteSpace=wrap;rounded=0;" parent="5sVSLcRkrUw4bLYzdGhR-3" vertex="1">
          <mxGeometry x="1940" y="200" width="60" height="30" as="geometry" />
        </mxCell>
        <mxCell id="TACb4A-l2PN4fmE-W4P7-47" value="SI" style="text;html=1;strokeColor=none;fillColor=none;align=center;verticalAlign=middle;whiteSpace=wrap;rounded=0;" parent="5sVSLcRkrUw4bLYzdGhR-3" vertex="1">
          <mxGeometry x="1810" y="200" width="60" height="30" as="geometry" />
        </mxCell>
        <mxCell id="TACb4A-l2PN4fmE-W4P7-49" value="SI" style="text;html=1;strokeColor=none;fillColor=none;align=center;verticalAlign=middle;whiteSpace=wrap;rounded=0;" parent="5sVSLcRkrUw4bLYzdGhR-3" vertex="1">
          <mxGeometry x="1750" y="40" width="60" height="30" as="geometry" />
        </mxCell>
        <mxCell id="TACb4A-l2PN4fmE-W4P7-50" value="Completar datos a actualizar" style="whiteSpace=wrap;html=1;fontColor=#000000;rounded=0;" parent="5sVSLcRkrUw4bLYzdGhR-3" vertex="1">
          <mxGeometry x="2110" y="180" width="120" height="60" as="geometry" />
        </mxCell>
        <mxCell id="5sVSLcRkrUw4bLYzdGhR-20" value="App Login" style="swimlane;html=1;startSize=20;horizontal=0;" parent="5sVSLcRkrUw4bLYzdGhR-1" vertex="1">
          <mxGeometry x="20" y="380" width="2530" height="510" as="geometry" />
        </mxCell>
        <mxCell id="5sVSLcRkrUw4bLYzdGhR-22" value="" style="edgeStyle=orthogonalEdgeStyle;rounded=0;orthogonalLoop=1;jettySize=auto;html=1;" parent="5sVSLcRkrUw4bLYzdGhR-20" source="5sVSLcRkrUw4bLYzdGhR-23" target="5sVSLcRkrUw4bLYzdGhR-24" edge="1">
          <mxGeometry relative="1" as="geometry" />
        </mxCell>
        <mxCell id="XWLn413S41sz6MWQccGK-8" value="" style="edgeStyle=orthogonalEdgeStyle;rounded=0;orthogonalLoop=1;jettySize=auto;html=1;" parent="5sVSLcRkrUw4bLYzdGhR-20" source="5sVSLcRkrUw4bLYzdGhR-23" target="XWLn413S41sz6MWQccGK-7" edge="1">
          <mxGeometry relative="1" as="geometry" />
        </mxCell>
        <mxCell id="5sVSLcRkrUw4bLYzdGhR-23" value="Cerrar sesión" style="whiteSpace=wrap;html=1;fontColor=#000000;rounded=0;" parent="5sVSLcRkrUw4bLYzdGhR-20" vertex="1">
          <mxGeometry x="510" y="40" width="120" height="60" as="geometry" />
        </mxCell>
        <mxCell id="5sVSLcRkrUw4bLYzdGhR-24" value="Intentar conexión a la base de datos" style="whiteSpace=wrap;html=1;fontColor=#000000;rounded=0;" parent="5sVSLcRkrUw4bLYzdGhR-20" vertex="1">
          <mxGeometry x="510" y="170" width="120" height="60" as="geometry" />
        </mxCell>
        <mxCell id="XWLn413S41sz6MWQccGK-3" style="edgeStyle=orthogonalEdgeStyle;rounded=0;orthogonalLoop=1;jettySize=auto;html=1;entryX=0;entryY=0.5;entryDx=0;entryDy=0;" parent="5sVSLcRkrUw4bLYzdGhR-20" source="XWLn413S41sz6MWQccGK-1" target="5sVSLcRkrUw4bLYzdGhR-23" edge="1">
          <mxGeometry relative="1" as="geometry" />
        </mxCell>
        <mxCell id="XWLn413S41sz6MWQccGK-4" style="edgeStyle=orthogonalEdgeStyle;rounded=0;orthogonalLoop=1;jettySize=auto;html=1;entryX=0;entryY=0.5;entryDx=0;entryDy=0;" parent="5sVSLcRkrUw4bLYzdGhR-20" source="XWLn413S41sz6MWQccGK-1" target="5sVSLcRkrUw4bLYzdGhR-24" edge="1">
          <mxGeometry relative="1" as="geometry" />
        </mxCell>
        <mxCell id="XWLn413S41sz6MWQccGK-1" value="¿Qué opción seleccionó?" style="points=[[0.25,0.25,0],[0.5,0,0],[0.75,0.25,0],[1,0.5,0],[0.75,0.75,0],[0.5,1,0],[0.25,0.75,0],[0,0.5,0]];shape=mxgraph.bpmn.gateway2;html=1;verticalLabelPosition=bottom;labelBackgroundColor=#ffffff;verticalAlign=top;align=center;perimeter=rhombusPerimeter;outlineConnect=0;outline=none;symbol=none;fillColor=#fff2cc;strokeColor=#d6b656;" parent="5sVSLcRkrUw4bLYzdGhR-20" vertex="1">
          <mxGeometry x="294" y="80" width="80" height="80" as="geometry" />
        </mxCell>
        <mxCell id="XWLn413S41sz6MWQccGK-5" value="Cerrar sesión" style="text;html=1;strokeColor=none;fillColor=none;align=center;verticalAlign=middle;whiteSpace=wrap;rounded=0;" parent="5sVSLcRkrUw4bLYzdGhR-20" vertex="1">
          <mxGeometry x="420" y="30" width="60" height="30" as="geometry" />
        </mxCell>
        <mxCell id="XWLn413S41sz6MWQccGK-6" value="Ver perfil" style="text;html=1;strokeColor=none;fillColor=none;align=center;verticalAlign=middle;whiteSpace=wrap;rounded=0;" parent="5sVSLcRkrUw4bLYzdGhR-20" vertex="1">
          <mxGeometry x="420" y="210" width="60" height="30" as="geometry" />
        </mxCell>
        <mxCell id="XWLn413S41sz6MWQccGK-7" value="Retornar vista de inicio de sesión" style="whiteSpace=wrap;html=1;fontColor=#000000;rounded=0;" parent="5sVSLcRkrUw4bLYzdGhR-20" vertex="1">
          <mxGeometry x="710" y="40" width="120" height="60" as="geometry" />
        </mxCell>
        <mxCell id="C3bxOULLau4kThEt0IWJ-12" style="edgeStyle=orthogonalEdgeStyle;rounded=0;orthogonalLoop=1;jettySize=auto;html=1;entryX=0;entryY=0.5;entryDx=0;entryDy=0;entryPerimeter=0;" parent="5sVSLcRkrUw4bLYzdGhR-20" source="YeQPzv7ydCj40gKTUjaK-1" target="C3bxOULLau4kThEt0IWJ-7" edge="1">
          <mxGeometry relative="1" as="geometry" />
        </mxCell>
        <mxCell id="YeQPzv7ydCj40gKTUjaK-1" value="Sub Validar Conexión BD" style="points=[[0.25,0,0],[0.5,0,0],[0.75,0,0],[1,0.25,0],[1,0.5,0],[1,0.75,0],[0.75,1,0],[0.5,1,0],[0.25,1,0],[0,0.75,0],[0,0.5,0],[0,0.25,0]];shape=mxgraph.bpmn.task;whiteSpace=wrap;rectStyle=rounded;size=10;html=1;container=1;expand=0;collapsible=0;taskMarker=abstract;isLoopSub=1;" parent="5sVSLcRkrUw4bLYzdGhR-20" vertex="1">
          <mxGeometry x="690" y="275" width="120" height="80" as="geometry" />
        </mxCell>
        <mxCell id="C3bxOULLau4kThEt0IWJ-1" style="edgeStyle=orthogonalEdgeStyle;rounded=0;orthogonalLoop=1;jettySize=auto;html=1;entryX=0.5;entryY=1;entryDx=0;entryDy=0;" parent="5sVSLcRkrUw4bLYzdGhR-20" target="C3bxOULLau4kThEt0IWJ-3" edge="1">
          <mxGeometry relative="1" as="geometry">
            <mxPoint x="1020" y="275" as="sourcePoint" />
          </mxGeometry>
        </mxCell>
        <mxCell id="C3bxOULLau4kThEt0IWJ-3" value="Capturar error y bloquear ejecución del programa" style="whiteSpace=wrap;html=1;fontColor=#000000;rounded=0;" parent="5sVSLcRkrUw4bLYzdGhR-20" vertex="1">
          <mxGeometry x="960" y="165" width="120" height="60" as="geometry" />
        </mxCell>
        <mxCell id="C3bxOULLau4kThEt0IWJ-4" value="Redirigir al cliente a un error 500" style="whiteSpace=wrap;html=1;fontColor=#000000;rounded=0;" parent="5sVSLcRkrUw4bLYzdGhR-20" vertex="1">
          <mxGeometry x="960" y="75" width="120" height="60" as="geometry" />
        </mxCell>
        <mxCell id="C3bxOULLau4kThEt0IWJ-2" value="" style="edgeStyle=orthogonalEdgeStyle;rounded=0;orthogonalLoop=1;jettySize=auto;html=1;" parent="5sVSLcRkrUw4bLYzdGhR-20" source="C3bxOULLau4kThEt0IWJ-3" target="C3bxOULLau4kThEt0IWJ-4" edge="1">
          <mxGeometry relative="1" as="geometry" />
        </mxCell>
        <mxCell id="C3bxOULLau4kThEt0IWJ-5" value="NO" style="text;html=1;strokeColor=none;fillColor=none;align=center;verticalAlign=middle;whiteSpace=wrap;rounded=0;" parent="5sVSLcRkrUw4bLYzdGhR-20" vertex="1">
          <mxGeometry x="960" y="245" width="60" height="30" as="geometry" />
        </mxCell>
        <mxCell id="C3bxOULLau4kThEt0IWJ-7" value="¿Se tiene la interfaz con la BD?" style="points=[[0.25,0.25,0],[0.5,0,0],[0.75,0.25,0],[1,0.5,0],[0.75,0.75,0],[0.5,1,0],[0.25,0.75,0],[0,0.5,0]];shape=mxgraph.bpmn.gateway2;html=1;verticalLabelPosition=bottom;labelBackgroundColor=#ffffff;verticalAlign=top;align=center;perimeter=rhombusPerimeter;outlineConnect=0;outline=none;symbol=none;fillColor=#fff2cc;strokeColor=#d6b656;" parent="5sVSLcRkrUw4bLYzdGhR-20" vertex="1">
          <mxGeometry x="980" y="275" width="80" height="80" as="geometry" />
        </mxCell>
        <mxCell id="C3bxOULLau4kThEt0IWJ-6" value="" style="edgeStyle=orthogonalEdgeStyle;rounded=0;orthogonalLoop=1;jettySize=auto;html=1;" parent="5sVSLcRkrUw4bLYzdGhR-20" source="C3bxOULLau4kThEt0IWJ-7" edge="1">
          <mxGeometry relative="1" as="geometry">
            <mxPoint x="1120" y="315" as="targetPoint" />
          </mxGeometry>
        </mxCell>
        <mxCell id="C3bxOULLau4kThEt0IWJ-9" value="SI" style="text;html=1;strokeColor=none;fillColor=none;align=center;verticalAlign=middle;whiteSpace=wrap;rounded=0;" parent="5sVSLcRkrUw4bLYzdGhR-20" vertex="1">
          <mxGeometry x="1050" y="275" width="60" height="30" as="geometry" />
        </mxCell>
        <mxCell id="TACb4A-l2PN4fmE-W4P7-13" value="Realizar consulta con los datos del usuario a la Base de datos" style="whiteSpace=wrap;html=1;verticalAlign=middle;labelBackgroundColor=#ffffff;" parent="5sVSLcRkrUw4bLYzdGhR-20" vertex="1">
          <mxGeometry x="1120" y="285" width="120" height="60" as="geometry" />
        </mxCell>
        <mxCell id="TACb4A-l2PN4fmE-W4P7-25" style="edgeStyle=orthogonalEdgeStyle;rounded=0;orthogonalLoop=1;jettySize=auto;html=1;entryX=1;entryY=0.5;entryDx=0;entryDy=0;" parent="5sVSLcRkrUw4bLYzdGhR-20" source="TACb4A-l2PN4fmE-W4P7-15" target="C3bxOULLau4kThEt0IWJ-3" edge="1">
          <mxGeometry relative="1" as="geometry">
            <Array as="points">
              <mxPoint x="1360" y="195" />
            </Array>
          </mxGeometry>
        </mxCell>
        <mxCell id="TACb4A-l2PN4fmE-W4P7-15" value="¿Se obtuvo respuesta de la consulta?" style="points=[[0.25,0.25,0],[0.5,0,0],[0.75,0.25,0],[1,0.5,0],[0.75,0.75,0],[0.5,1,0],[0.25,0.75,0],[0,0.5,0]];shape=mxgraph.bpmn.gateway2;html=1;verticalLabelPosition=bottom;labelBackgroundColor=#ffffff;verticalAlign=top;align=center;perimeter=rhombusPerimeter;outlineConnect=0;outline=none;symbol=none;fillColor=#fff2cc;strokeColor=#d6b656;" parent="5sVSLcRkrUw4bLYzdGhR-20" vertex="1">
          <mxGeometry x="1320" y="275" width="80" height="80" as="geometry" />
        </mxCell>
        <mxCell id="TACb4A-l2PN4fmE-W4P7-16" value="NO" style="text;html=1;strokeColor=none;fillColor=none;align=center;verticalAlign=middle;whiteSpace=wrap;rounded=0;" parent="5sVSLcRkrUw4bLYzdGhR-20" vertex="1">
          <mxGeometry x="1290" y="270" width="60" height="30" as="geometry" />
        </mxCell>
        <mxCell id="TACb4A-l2PN4fmE-W4P7-27" value="" style="edgeStyle=orthogonalEdgeStyle;rounded=0;orthogonalLoop=1;jettySize=auto;html=1;" parent="5sVSLcRkrUw4bLYzdGhR-20" source="TACb4A-l2PN4fmE-W4P7-18" target="TACb4A-l2PN4fmE-W4P7-26" edge="1">
          <mxGeometry relative="1" as="geometry" />
        </mxCell>
        <mxCell id="TACb4A-l2PN4fmE-W4P7-18" value="Prepara vista con los datos del usuario" style="whiteSpace=wrap;html=1;fontColor=#000000;rounded=0;" parent="5sVSLcRkrUw4bLYzdGhR-20" vertex="1">
          <mxGeometry x="1500" y="285" width="120" height="60" as="geometry" />
        </mxCell>
        <mxCell id="TACb4A-l2PN4fmE-W4P7-14" style="edgeStyle=orthogonalEdgeStyle;rounded=0;orthogonalLoop=1;jettySize=auto;html=1;entryX=0;entryY=0.5;entryDx=0;entryDy=0;" parent="5sVSLcRkrUw4bLYzdGhR-20" source="TACb4A-l2PN4fmE-W4P7-15" target="TACb4A-l2PN4fmE-W4P7-18" edge="1">
          <mxGeometry relative="1" as="geometry" />
        </mxCell>
        <mxCell id="TACb4A-l2PN4fmE-W4P7-19" value="SI" style="text;html=1;strokeColor=none;fillColor=none;align=center;verticalAlign=middle;whiteSpace=wrap;rounded=0;" parent="5sVSLcRkrUw4bLYzdGhR-20" vertex="1">
          <mxGeometry x="1400" y="275" width="60" height="30" as="geometry" />
        </mxCell>
        <mxCell id="TACb4A-l2PN4fmE-W4P7-20" style="edgeStyle=orthogonalEdgeStyle;rounded=0;orthogonalLoop=1;jettySize=auto;html=1;entryX=0.5;entryY=1;entryDx=0;entryDy=0;entryPerimeter=0;" parent="5sVSLcRkrUw4bLYzdGhR-20" source="TACb4A-l2PN4fmE-W4P7-21" target="TACb4A-l2PN4fmE-W4P7-15" edge="1">
          <mxGeometry relative="1" as="geometry" />
        </mxCell>
        <mxCell id="TACb4A-l2PN4fmE-W4P7-21" value="Obtener resultados" style="whiteSpace=wrap;html=1;labelBackgroundColor=#ffffff;" parent="5sVSLcRkrUw4bLYzdGhR-20" vertex="1">
          <mxGeometry x="1300" y="405" width="120" height="60" as="geometry" />
        </mxCell>
        <mxCell id="TACb4A-l2PN4fmE-W4P7-26" value="Retornar vista de perfil del usuario con sus datos" style="whiteSpace=wrap;html=1;fontColor=#000000;rounded=0;" parent="5sVSLcRkrUw4bLYzdGhR-20" vertex="1">
          <mxGeometry x="1500" y="145" width="120" height="60" as="geometry" />
        </mxCell>
        <mxCell id="TACb4A-l2PN4fmE-W4P7-54" value="" style="edgeStyle=orthogonalEdgeStyle;rounded=0;orthogonalLoop=1;jettySize=auto;html=1;entryX=1;entryY=0.5;entryDx=0;entryDy=0;entryPerimeter=0;" parent="5sVSLcRkrUw4bLYzdGhR-20" source="TACb4A-l2PN4fmE-W4P7-51" target="TACb4A-l2PN4fmE-W4P7-55" edge="1">
          <mxGeometry relative="1" as="geometry">
            <mxPoint x="2030" y="190" as="targetPoint" />
          </mxGeometry>
        </mxCell>
        <mxCell id="TACb4A-l2PN4fmE-W4P7-51" value="Validar datos del usuario y autenticación" style="whiteSpace=wrap;html=1;fontColor=#000000;rounded=0;" parent="5sVSLcRkrUw4bLYzdGhR-20" vertex="1">
          <mxGeometry x="2110" y="160" width="120" height="60" as="geometry" />
        </mxCell>
        <mxCell id="TACb4A-l2PN4fmE-W4P7-59" value="" style="edgeStyle=orthogonalEdgeStyle;rounded=0;orthogonalLoop=1;jettySize=auto;html=1;" parent="5sVSLcRkrUw4bLYzdGhR-20" source="TACb4A-l2PN4fmE-W4P7-55" target="TACb4A-l2PN4fmE-W4P7-58" edge="1">
          <mxGeometry relative="1" as="geometry" />
        </mxCell>
        <mxCell id="TACb4A-l2PN4fmE-W4P7-65" value="" style="edgeStyle=orthogonalEdgeStyle;rounded=0;orthogonalLoop=1;jettySize=auto;html=1;" parent="5sVSLcRkrUw4bLYzdGhR-20" source="TACb4A-l2PN4fmE-W4P7-55" target="TACb4A-l2PN4fmE-W4P7-64" edge="1">
          <mxGeometry relative="1" as="geometry" />
        </mxCell>
        <mxCell id="TACb4A-l2PN4fmE-W4P7-55" value="¿Se valida la autenticación?" style="points=[[0.25,0.25,0],[0.5,0,0],[0.75,0.25,0],[1,0.5,0],[0.75,0.75,0],[0.5,1,0],[0.25,0.75,0],[0,0.5,0]];shape=mxgraph.bpmn.gateway2;html=1;verticalLabelPosition=bottom;labelBackgroundColor=#ffffff;verticalAlign=top;align=center;perimeter=rhombusPerimeter;outlineConnect=0;outline=none;symbol=none;fillColor=#fff2cc;strokeColor=#d6b656;" parent="5sVSLcRkrUw4bLYzdGhR-20" vertex="1">
          <mxGeometry x="1930" y="150" width="80" height="80" as="geometry" />
        </mxCell>
        <mxCell id="TACb4A-l2PN4fmE-W4P7-58" value="Mostrar mensaje de error de validación" style="whiteSpace=wrap;html=1;verticalAlign=middle;labelBackgroundColor=#ffffff;" parent="5sVSLcRkrUw4bLYzdGhR-20" vertex="1">
          <mxGeometry x="1910" y="30" width="120" height="60" as="geometry" />
        </mxCell>
        <mxCell id="TACb4A-l2PN4fmE-W4P7-61" value="NO" style="text;html=1;strokeColor=none;fillColor=none;align=center;verticalAlign=middle;whiteSpace=wrap;rounded=0;" parent="5sVSLcRkrUw4bLYzdGhR-20" vertex="1">
          <mxGeometry x="1960" y="100" width="60" height="30" as="geometry" />
        </mxCell>
        <mxCell id="TACb4A-l2PN4fmE-W4P7-62" value="SI" style="text;html=1;strokeColor=none;fillColor=none;align=center;verticalAlign=middle;whiteSpace=wrap;rounded=0;" parent="5sVSLcRkrUw4bLYzdGhR-20" vertex="1">
          <mxGeometry x="1880" y="150" width="60" height="30" as="geometry" />
        </mxCell>
        <mxCell id="TACb4A-l2PN4fmE-W4P7-64" value="Realizar actualización con base de datos" style="whiteSpace=wrap;html=1;verticalAlign=middle;labelBackgroundColor=#ffffff;" parent="5sVSLcRkrUw4bLYzdGhR-20" vertex="1">
          <mxGeometry x="1730" y="305" width="120" height="60" as="geometry" />
        </mxCell>
        <mxCell id="TACb4A-l2PN4fmE-W4P7-70" style="edgeStyle=orthogonalEdgeStyle;rounded=0;orthogonalLoop=1;jettySize=auto;html=1;entryX=1;entryY=0.5;entryDx=0;entryDy=0;" parent="5sVSLcRkrUw4bLYzdGhR-20" source="TACb4A-l2PN4fmE-W4P7-68" target="TACb4A-l2PN4fmE-W4P7-26" edge="1">
          <mxGeometry relative="1" as="geometry">
            <Array as="points">
              <mxPoint x="1700" y="430" />
              <mxPoint x="1700" y="175" />
            </Array>
          </mxGeometry>
        </mxCell>
        <mxCell id="TACb4A-l2PN4fmE-W4P7-68" value="Actualizar vista de perfil de datos" style="whiteSpace=wrap;html=1;labelBackgroundColor=#ffffff;" parent="5sVSLcRkrUw4bLYzdGhR-20" vertex="1">
          <mxGeometry x="1890" y="400" width="120" height="60" as="geometry" />
        </mxCell>
        <mxCell id="5sVSLcRkrUw4bLYzdGhR-51" value="Base de datos" style="swimlane;html=1;startSize=20;horizontal=0;" parent="5sVSLcRkrUw4bLYzdGhR-1" vertex="1">
          <mxGeometry x="20" y="890" width="2530" height="120" as="geometry" />
        </mxCell>
        <mxCell id="0ryhAgIqxvIlhoANb5Bq-1" value="Conectar App y BD" style="points=[[0.25,0,0],[0.5,0,0],[0.75,0,0],[1,0.25,0],[1,0.5,0],[1,0.75,0],[0.75,1,0],[0.5,1,0],[0.25,1,0],[0,0.75,0],[0,0.5,0],[0,0.25,0]];shape=mxgraph.bpmn.task;whiteSpace=wrap;rectStyle=rounded;size=10;html=1;container=1;expand=0;collapsible=0;taskMarker=abstract;isLoopSub=1;" parent="5sVSLcRkrUw4bLYzdGhR-51" vertex="1">
          <mxGeometry x="510" y="20" width="120" height="80" as="geometry" />
        </mxCell>
        <mxCell id="TACb4A-l2PN4fmE-W4P7-22" value="Realizar operación en la base de datos" style="whiteSpace=wrap;html=1;labelBackgroundColor=#ffffff;" parent="5sVSLcRkrUw4bLYzdGhR-51" vertex="1">
          <mxGeometry x="1120" y="40" width="120" height="60" as="geometry" />
        </mxCell>
        <mxCell id="TACb4A-l2PN4fmE-W4P7-66" value="Realizar operación en la base de datos" style="whiteSpace=wrap;html=1;labelBackgroundColor=#ffffff;" parent="5sVSLcRkrUw4bLYzdGhR-51" vertex="1">
          <mxGeometry x="1730" y="40" width="120" height="60" as="geometry" />
        </mxCell>
        <mxCell id="XWLn413S41sz6MWQccGK-2" style="edgeStyle=orthogonalEdgeStyle;rounded=0;orthogonalLoop=1;jettySize=auto;html=1;entryX=0.5;entryY=0;entryDx=0;entryDy=0;entryPerimeter=0;dashed=1;" parent="5sVSLcRkrUw4bLYzdGhR-1" source="5sVSLcRkrUw4bLYzdGhR-9" target="XWLn413S41sz6MWQccGK-1" edge="1">
          <mxGeometry relative="1" as="geometry" />
        </mxCell>
        <mxCell id="XWLn413S41sz6MWQccGK-9" style="edgeStyle=orthogonalEdgeStyle;rounded=0;orthogonalLoop=1;jettySize=auto;html=1;dashed=1;" parent="5sVSLcRkrUw4bLYzdGhR-1" source="XWLn413S41sz6MWQccGK-7" target="5sVSLcRkrUw4bLYzdGhR-12" edge="1">
          <mxGeometry relative="1" as="geometry" />
        </mxCell>
        <mxCell id="YeQPzv7ydCj40gKTUjaK-2" style="edgeStyle=orthogonalEdgeStyle;rounded=0;orthogonalLoop=1;jettySize=auto;html=1;entryX=0.5;entryY=1;entryDx=0;entryDy=0;entryPerimeter=0;dashed=1;" parent="5sVSLcRkrUw4bLYzdGhR-1" source="0ryhAgIqxvIlhoANb5Bq-1" target="YeQPzv7ydCj40gKTUjaK-1" edge="1">
          <mxGeometry relative="1" as="geometry" />
        </mxCell>
        <mxCell id="TACb4A-l2PN4fmE-W4P7-23" value="" style="edgeStyle=orthogonalEdgeStyle;rounded=0;orthogonalLoop=1;jettySize=auto;html=1;dashed=1;" parent="5sVSLcRkrUw4bLYzdGhR-1" source="TACb4A-l2PN4fmE-W4P7-13" target="TACb4A-l2PN4fmE-W4P7-22" edge="1">
          <mxGeometry relative="1" as="geometry" />
        </mxCell>
        <mxCell id="TACb4A-l2PN4fmE-W4P7-24" style="edgeStyle=orthogonalEdgeStyle;rounded=0;orthogonalLoop=1;jettySize=auto;html=1;entryX=0.5;entryY=1;entryDx=0;entryDy=0;dashed=1;" parent="5sVSLcRkrUw4bLYzdGhR-1" source="TACb4A-l2PN4fmE-W4P7-22" target="TACb4A-l2PN4fmE-W4P7-21" edge="1">
          <mxGeometry relative="1" as="geometry" />
        </mxCell>
        <mxCell id="TACb4A-l2PN4fmE-W4P7-29" value="" style="edgeStyle=orthogonalEdgeStyle;rounded=0;orthogonalLoop=1;jettySize=auto;html=1;dashed=1;" parent="5sVSLcRkrUw4bLYzdGhR-1" source="TACb4A-l2PN4fmE-W4P7-26" target="TACb4A-l2PN4fmE-W4P7-28" edge="1">
          <mxGeometry relative="1" as="geometry" />
        </mxCell>
        <mxCell id="C3bxOULLau4kThEt0IWJ-10" style="edgeStyle=orthogonalEdgeStyle;rounded=0;orthogonalLoop=1;jettySize=auto;html=1;dashed=1;exitX=0.5;exitY=0;exitDx=0;exitDy=0;entryX=0.5;entryY=1;entryDx=0;entryDy=0;" parent="5sVSLcRkrUw4bLYzdGhR-1" source="C3bxOULLau4kThEt0IWJ-4" target="5sVSLcRkrUw4bLYzdGhR-12" edge="1">
          <mxGeometry relative="1" as="geometry">
            <mxPoint x="940" y="170.0000000000001" as="targetPoint" />
            <Array as="points">
              <mxPoint x="1040" y="280" />
              <mxPoint x="930" y="280" />
            </Array>
          </mxGeometry>
        </mxCell>
        <mxCell id="TACb4A-l2PN4fmE-W4P7-41" style="edgeStyle=orthogonalEdgeStyle;rounded=0;orthogonalLoop=1;jettySize=auto;html=1;entryX=0.5;entryY=0;entryDx=0;entryDy=0;dashed=1;" parent="5sVSLcRkrUw4bLYzdGhR-1" source="TACb4A-l2PN4fmE-W4P7-39" target="5sVSLcRkrUw4bLYzdGhR-23" edge="1">
          <mxGeometry relative="1" as="geometry" />
        </mxCell>
        <mxCell id="TACb4A-l2PN4fmE-W4P7-52" value="" style="edgeStyle=orthogonalEdgeStyle;rounded=0;orthogonalLoop=1;jettySize=auto;html=1;dashed=1;" parent="5sVSLcRkrUw4bLYzdGhR-1" source="TACb4A-l2PN4fmE-W4P7-50" target="TACb4A-l2PN4fmE-W4P7-51" edge="1">
          <mxGeometry relative="1" as="geometry" />
        </mxCell>
        <mxCell id="TACb4A-l2PN4fmE-W4P7-60" style="edgeStyle=orthogonalEdgeStyle;rounded=0;orthogonalLoop=1;jettySize=auto;html=1;entryX=0.5;entryY=1;entryDx=0;entryDy=0;dashed=1;" parent="5sVSLcRkrUw4bLYzdGhR-1" source="TACb4A-l2PN4fmE-W4P7-58" target="TACb4A-l2PN4fmE-W4P7-28" edge="1">
          <mxGeometry relative="1" as="geometry" />
        </mxCell>
        <mxCell id="TACb4A-l2PN4fmE-W4P7-67" style="edgeStyle=orthogonalEdgeStyle;rounded=0;orthogonalLoop=1;jettySize=auto;html=1;entryX=0.5;entryY=0;entryDx=0;entryDy=0;dashed=1;" parent="5sVSLcRkrUw4bLYzdGhR-1" source="TACb4A-l2PN4fmE-W4P7-64" target="TACb4A-l2PN4fmE-W4P7-66" edge="1">
          <mxGeometry relative="1" as="geometry" />
        </mxCell>
        <mxCell id="TACb4A-l2PN4fmE-W4P7-69" value="" style="edgeStyle=orthogonalEdgeStyle;rounded=0;orthogonalLoop=1;jettySize=auto;html=1;dashed=1;" parent="5sVSLcRkrUw4bLYzdGhR-1" source="TACb4A-l2PN4fmE-W4P7-66" target="TACb4A-l2PN4fmE-W4P7-68" edge="1">
          <mxGeometry relative="1" as="geometry" />
        </mxCell>
        <mxCell id="64BNYU06jU-zek7GfTqO-3" style="edgeStyle=orthogonalEdgeStyle;rounded=0;orthogonalLoop=1;jettySize=auto;html=1;entryX=0.5;entryY=0;entryDx=0;entryDy=0;entryPerimeter=0;dashed=1;" edge="1" parent="5sVSLcRkrUw4bLYzdGhR-1" source="5sVSLcRkrUw4bLYzdGhR-24" target="0ryhAgIqxvIlhoANb5Bq-1">
          <mxGeometry relative="1" as="geometry" />
        </mxCell>
      </root>
    </mxGraphModel>
  </diagram>
  <diagram id="fQBZH30OZqUn9EtkWNIu" name="Interacción usuario administrador">
    <mxGraphModel dx="2786" dy="2839" grid="1" gridSize="10" guides="1" tooltips="1" connect="1" arrows="1" fold="1" page="1" pageScale="1" pageWidth="827" pageHeight="1169" math="0" shadow="0">
      <root>
        <mxCell id="0" />
        <mxCell id="1" parent="0" />
        <mxCell id="DI-KIiW6oiwfs0hpKIFr-1" value="Interacción usuario administrador" style="swimlane;html=1;childLayout=stackLayout;resizeParent=1;resizeParentMax=0;horizontal=0;startSize=20;horizontalStack=0;" vertex="1" parent="1">
          <mxGeometry x="460" y="-570" width="3530" height="1530" as="geometry" />
        </mxCell>
        <mxCell id="XeswV0nsIRNQ1k-ivFIV-23" value="" style="edgeStyle=orthogonalEdgeStyle;rounded=0;orthogonalLoop=1;jettySize=auto;html=1;" edge="1" parent="DI-KIiW6oiwfs0hpKIFr-1" source="XeswV0nsIRNQ1k-ivFIV-25" target="XeswV0nsIRNQ1k-ivFIV-26">
          <mxGeometry relative="1" as="geometry" />
        </mxCell>
        <mxCell id="DI-KIiW6oiwfs0hpKIFr-2" value="Cliente" style="swimlane;html=1;startSize=20;horizontal=0;" vertex="1" parent="DI-KIiW6oiwfs0hpKIFr-1">
          <mxGeometry x="20" width="3510" height="390" as="geometry" />
        </mxCell>
        <mxCell id="DI-KIiW6oiwfs0hpKIFr-3" value="" style="edgeStyle=orthogonalEdgeStyle;rounded=0;orthogonalLoop=1;jettySize=auto;html=1;" edge="1" parent="DI-KIiW6oiwfs0hpKIFr-2" source="DI-KIiW6oiwfs0hpKIFr-4" target="DI-KIiW6oiwfs0hpKIFr-6">
          <mxGeometry relative="1" as="geometry" />
        </mxCell>
        <mxCell id="DI-KIiW6oiwfs0hpKIFr-4" value="" style="ellipse;whiteSpace=wrap;html=1;fillColor=#d5e8d4;strokeColor=#82b366;" vertex="1" parent="DI-KIiW6oiwfs0hpKIFr-2">
          <mxGeometry x="40" y="40" width="40" height="40" as="geometry" />
        </mxCell>
        <mxCell id="DI-KIiW6oiwfs0hpKIFr-5" style="edgeStyle=orthogonalEdgeStyle;rounded=0;orthogonalLoop=1;jettySize=auto;html=1;entryX=0;entryY=0.5;entryDx=0;entryDy=0;" edge="1" parent="DI-KIiW6oiwfs0hpKIFr-2" source="DI-KIiW6oiwfs0hpKIFr-6" target="DI-KIiW6oiwfs0hpKIFr-7">
          <mxGeometry relative="1" as="geometry" />
        </mxCell>
        <mxCell id="DI-KIiW6oiwfs0hpKIFr-6" value="Ver la vista de opciones" style="rounded=0;whiteSpace=wrap;html=1;fontFamily=Helvetica;fontSize=12;fontColor=#000000;align=center;" vertex="1" parent="DI-KIiW6oiwfs0hpKIFr-2">
          <mxGeometry x="120" y="30" width="90" height="60" as="geometry" />
        </mxCell>
        <mxCell id="DI-KIiW6oiwfs0hpKIFr-7" value="Seleccionar una opción" style="whiteSpace=wrap;html=1;fontColor=#000000;rounded=0;" vertex="1" parent="DI-KIiW6oiwfs0hpKIFr-2">
          <mxGeometry x="274" y="30" width="120" height="60" as="geometry" />
        </mxCell>
        <mxCell id="RbRFL-yQQJAAR6lI-nsx-2" style="edgeStyle=orthogonalEdgeStyle;rounded=0;orthogonalLoop=1;jettySize=auto;html=1;" edge="1" parent="DI-KIiW6oiwfs0hpKIFr-2" source="A9AXx7of_nsUe-xpAV8m-1" target="RbRFL-yQQJAAR6lI-nsx-1">
          <mxGeometry relative="1" as="geometry" />
        </mxCell>
        <mxCell id="A9AXx7of_nsUe-xpAV8m-1" value="Ver respuesta de servidor" style="whiteSpace=wrap;html=1;fontColor=#000000;rounded=0;" vertex="1" parent="DI-KIiW6oiwfs0hpKIFr-2">
          <mxGeometry x="700" y="230" width="120" height="60" as="geometry" />
        </mxCell>
        <mxCell id="RbRFL-yQQJAAR6lI-nsx-1" value="" style="ellipse;whiteSpace=wrap;html=1;rounded=0;fillColor=#f8cecc;strokeColor=#b85450;" vertex="1" parent="DI-KIiW6oiwfs0hpKIFr-2">
          <mxGeometry x="720" y="80" width="80" height="80" as="geometry" />
        </mxCell>
        <mxCell id="FFsUc8LxHQjWjqqM2JK--1" style="edgeStyle=orthogonalEdgeStyle;rounded=0;orthogonalLoop=1;jettySize=auto;html=1;entryX=0.5;entryY=1;entryDx=0;entryDy=0;dashed=1;" edge="1" parent="DI-KIiW6oiwfs0hpKIFr-2" source="XeswV0nsIRNQ1k-ivFIV-26" target="uHELYMVDwDIsDcxjX7bG-2">
          <mxGeometry relative="1" as="geometry">
            <Array as="points">
              <mxPoint x="1670" y="340" />
              <mxPoint x="1260" y="340" />
            </Array>
          </mxGeometry>
        </mxCell>
        <mxCell id="XeswV0nsIRNQ1k-ivFIV-26" value="Mostrar mensaje de error de validación" style="whiteSpace=wrap;html=1;verticalAlign=middle;labelBackgroundColor=#ffffff;" vertex="1" parent="DI-KIiW6oiwfs0hpKIFr-2">
          <mxGeometry x="1610" y="425" width="120" height="60" as="geometry" />
        </mxCell>
        <mxCell id="uHELYMVDwDIsDcxjX7bG-2" value="Ver vista de perfil" style="whiteSpace=wrap;html=1;fontColor=#000000;rounded=0;" vertex="1" parent="DI-KIiW6oiwfs0hpKIFr-2">
          <mxGeometry x="1200" y="80" width="120" height="60" as="geometry" />
        </mxCell>
        <mxCell id="uHELYMVDwDIsDcxjX7bG-5" value="¿Se desea actualizar datos posibles?" style="points=[[0.25,0.25,0],[0.5,0,0],[0.75,0.25,0],[1,0.5,0],[0.75,0.75,0],[0.5,1,0],[0.25,0.75,0],[0,0.5,0]];shape=mxgraph.bpmn.gateway2;html=1;verticalLabelPosition=bottom;labelBackgroundColor=#ffffff;verticalAlign=top;align=center;perimeter=rhombusPerimeter;outlineConnect=0;outline=none;symbol=none;fillColor=#fff2cc;strokeColor=#d6b656;" vertex="1" parent="DI-KIiW6oiwfs0hpKIFr-2">
          <mxGeometry x="1410" y="70" width="80" height="80" as="geometry" />
        </mxCell>
        <mxCell id="uHELYMVDwDIsDcxjX7bG-1" value="" style="edgeStyle=orthogonalEdgeStyle;rounded=0;orthogonalLoop=1;jettySize=auto;html=1;entryX=0;entryY=0.5;entryDx=0;entryDy=0;entryPerimeter=0;" edge="1" parent="DI-KIiW6oiwfs0hpKIFr-2" source="uHELYMVDwDIsDcxjX7bG-2" target="uHELYMVDwDIsDcxjX7bG-5">
          <mxGeometry relative="1" as="geometry">
            <mxPoint x="1400" y="110" as="targetPoint" />
          </mxGeometry>
        </mxCell>
        <mxCell id="uHELYMVDwDIsDcxjX7bG-6" value="NO" style="text;html=1;strokeColor=none;fillColor=none;align=center;verticalAlign=middle;whiteSpace=wrap;rounded=0;" vertex="1" parent="DI-KIiW6oiwfs0hpKIFr-2">
          <mxGeometry x="1470" y="110" width="60" height="30" as="geometry" />
        </mxCell>
        <mxCell id="uHELYMVDwDIsDcxjX7bG-8" value="¿Se desea salir de la app?" style="points=[[0.25,0.25,0],[0.5,0,0],[0.75,0.25,0],[1,0.5,0],[0.75,0.75,0],[0.5,1,0],[0.25,0.75,0],[0,0.5,0]];shape=mxgraph.bpmn.gateway2;html=1;verticalLabelPosition=bottom;labelBackgroundColor=#ffffff;verticalAlign=top;align=center;perimeter=rhombusPerimeter;outlineConnect=0;outline=none;symbol=none;fillColor=#fff2cc;strokeColor=#d6b656;" vertex="1" parent="DI-KIiW6oiwfs0hpKIFr-2">
          <mxGeometry x="1570" y="200" width="80" height="80" as="geometry" />
        </mxCell>
        <mxCell id="uHELYMVDwDIsDcxjX7bG-3" value="" style="edgeStyle=orthogonalEdgeStyle;rounded=0;orthogonalLoop=1;jettySize=auto;html=1;entryX=0.5;entryY=0;entryDx=0;entryDy=0;entryPerimeter=0;" edge="1" parent="DI-KIiW6oiwfs0hpKIFr-2" source="uHELYMVDwDIsDcxjX7bG-5" target="uHELYMVDwDIsDcxjX7bG-8">
          <mxGeometry relative="1" as="geometry">
            <mxPoint x="1570" y="110" as="targetPoint" />
          </mxGeometry>
        </mxCell>
        <mxCell id="uHELYMVDwDIsDcxjX7bG-9" value="Seleccionar botón de cerrar sesión" style="whiteSpace=wrap;html=1;fontColor=#000000;rounded=0;" vertex="1" parent="DI-KIiW6oiwfs0hpKIFr-2">
          <mxGeometry x="1080" y="210" width="120" height="60" as="geometry" />
        </mxCell>
        <mxCell id="uHELYMVDwDIsDcxjX7bG-7" style="edgeStyle=orthogonalEdgeStyle;rounded=0;orthogonalLoop=1;jettySize=auto;html=1;entryX=1;entryY=0.5;entryDx=0;entryDy=0;" edge="1" parent="DI-KIiW6oiwfs0hpKIFr-2" source="uHELYMVDwDIsDcxjX7bG-8" target="uHELYMVDwDIsDcxjX7bG-9">
          <mxGeometry relative="1" as="geometry" />
        </mxCell>
        <mxCell id="uHELYMVDwDIsDcxjX7bG-10" value="NO" style="text;html=1;strokeColor=none;fillColor=none;align=center;verticalAlign=middle;whiteSpace=wrap;rounded=0;" vertex="1" parent="DI-KIiW6oiwfs0hpKIFr-2">
          <mxGeometry x="1640" y="210" width="60" height="30" as="geometry" />
        </mxCell>
        <mxCell id="uHELYMVDwDIsDcxjX7bG-11" value="SI" style="text;html=1;strokeColor=none;fillColor=none;align=center;verticalAlign=middle;whiteSpace=wrap;rounded=0;" vertex="1" parent="DI-KIiW6oiwfs0hpKIFr-2">
          <mxGeometry x="1510" y="210" width="60" height="30" as="geometry" />
        </mxCell>
        <mxCell id="uHELYMVDwDIsDcxjX7bG-12" value="SI" style="text;html=1;strokeColor=none;fillColor=none;align=center;verticalAlign=middle;whiteSpace=wrap;rounded=0;" vertex="1" parent="DI-KIiW6oiwfs0hpKIFr-2">
          <mxGeometry x="1450" y="50" width="60" height="30" as="geometry" />
        </mxCell>
        <mxCell id="K0sajyhvEqjtgLXw1nJt-1" style="edgeStyle=orthogonalEdgeStyle;rounded=0;orthogonalLoop=1;jettySize=auto;html=1;dashed=1;" edge="1" parent="DI-KIiW6oiwfs0hpKIFr-2" source="uHELYMVDwDIsDcxjX7bG-13">
          <mxGeometry relative="1" as="geometry">
            <mxPoint x="1870" y="590" as="targetPoint" />
          </mxGeometry>
        </mxCell>
        <mxCell id="uHELYMVDwDIsDcxjX7bG-13" value="Completar datos a actualizar" style="whiteSpace=wrap;html=1;fontColor=#000000;rounded=0;" vertex="1" parent="DI-KIiW6oiwfs0hpKIFr-2">
          <mxGeometry x="1810" y="190" width="120" height="60" as="geometry" />
        </mxCell>
        <mxCell id="uHELYMVDwDIsDcxjX7bG-4" style="edgeStyle=orthogonalEdgeStyle;rounded=0;orthogonalLoop=1;jettySize=auto;html=1;exitX=0.5;exitY=0;exitDx=0;exitDy=0;exitPerimeter=0;entryX=0.5;entryY=0;entryDx=0;entryDy=0;" edge="1" parent="DI-KIiW6oiwfs0hpKIFr-2" source="uHELYMVDwDIsDcxjX7bG-5" target="uHELYMVDwDIsDcxjX7bG-13">
          <mxGeometry relative="1" as="geometry">
            <mxPoint x="1870" y="100" as="targetPoint" />
            <Array as="points">
              <mxPoint x="1450" y="50" />
              <mxPoint x="1870" y="50" />
            </Array>
          </mxGeometry>
        </mxCell>
        <mxCell id="FFsUc8LxHQjWjqqM2JK--16" value="" style="edgeStyle=orthogonalEdgeStyle;rounded=0;orthogonalLoop=1;jettySize=auto;html=1;" edge="1" parent="DI-KIiW6oiwfs0hpKIFr-2" source="FFsUc8LxHQjWjqqM2JK--13" target="FFsUc8LxHQjWjqqM2JK--15">
          <mxGeometry relative="1" as="geometry" />
        </mxCell>
        <mxCell id="FFsUc8LxHQjWjqqM2JK--13" value="Ver vista de administración" style="whiteSpace=wrap;html=1;labelBackgroundColor=#ffffff;" vertex="1" parent="DI-KIiW6oiwfs0hpKIFr-2">
          <mxGeometry x="2070" y="180" width="120" height="60" as="geometry" />
        </mxCell>
        <mxCell id="FFsUc8LxHQjWjqqM2JK--15" value="Seleccionar opción de usuario" style="whiteSpace=wrap;html=1;labelBackgroundColor=#ffffff;" vertex="1" parent="DI-KIiW6oiwfs0hpKIFr-2">
          <mxGeometry x="2330" y="180" width="120" height="60" as="geometry" />
        </mxCell>
        <mxCell id="FFsUc8LxHQjWjqqM2JK--45" style="edgeStyle=orthogonalEdgeStyle;rounded=0;orthogonalLoop=1;jettySize=auto;html=1;entryX=0.5;entryY=0;entryDx=0;entryDy=0;dashed=1;" edge="1" parent="DI-KIiW6oiwfs0hpKIFr-2" source="FFsUc8LxHQjWjqqM2JK--35" target="FFsUc8LxHQjWjqqM2JK--13">
          <mxGeometry relative="1" as="geometry">
            <Array as="points">
              <mxPoint x="2710" y="140" />
              <mxPoint x="2130" y="140" />
            </Array>
          </mxGeometry>
        </mxCell>
        <mxCell id="FFsUc8LxHQjWjqqM2JK--35" value="¿Se quiere elminar al usuario?" style="points=[[0.25,0.25,0],[0.5,0,0],[0.75,0.25,0],[1,0.5,0],[0.75,0.75,0],[0.5,1,0],[0.25,0.75,0],[0,0.5,0]];shape=mxgraph.bpmn.gateway2;html=1;verticalLabelPosition=bottom;labelBackgroundColor=#ffffff;verticalAlign=top;align=center;perimeter=rhombusPerimeter;outlineConnect=0;outline=none;symbol=none;fillColor=#fff2cc;strokeColor=#d6b656;" vertex="1" parent="DI-KIiW6oiwfs0hpKIFr-2">
          <mxGeometry x="2670" y="155" width="80" height="80" as="geometry" />
        </mxCell>
        <mxCell id="FFsUc8LxHQjWjqqM2JK--43" value="SI" style="text;html=1;strokeColor=none;fillColor=none;align=center;verticalAlign=middle;whiteSpace=wrap;rounded=0;" vertex="1" parent="DI-KIiW6oiwfs0hpKIFr-2">
          <mxGeometry x="2780" y="200" width="60" height="30" as="geometry" />
        </mxCell>
        <mxCell id="FFsUc8LxHQjWjqqM2JK--44" value="NO" style="text;html=1;strokeColor=none;fillColor=none;align=center;verticalAlign=middle;whiteSpace=wrap;rounded=0;" vertex="1" parent="DI-KIiW6oiwfs0hpKIFr-2">
          <mxGeometry x="2630" y="155" width="60" height="30" as="geometry" />
        </mxCell>
        <mxCell id="KZk-OScltLjR_nGIYEY4-11" style="edgeStyle=orthogonalEdgeStyle;rounded=0;orthogonalLoop=1;jettySize=auto;html=1;entryX=0.5;entryY=1;entryDx=0;entryDy=0;" edge="1" parent="DI-KIiW6oiwfs0hpKIFr-2" source="KZk-OScltLjR_nGIYEY4-5" target="KZk-OScltLjR_nGIYEY4-10">
          <mxGeometry relative="1" as="geometry" />
        </mxCell>
        <mxCell id="KZk-OScltLjR_nGIYEY4-5" value="Ver respuesta de servidor" style="whiteSpace=wrap;html=1;fontColor=#000000;rounded=0;" vertex="1" parent="DI-KIiW6oiwfs0hpKIFr-2">
          <mxGeometry x="3110" y="260" width="120" height="60" as="geometry" />
        </mxCell>
        <mxCell id="KZk-OScltLjR_nGIYEY4-10" value="" style="ellipse;whiteSpace=wrap;html=1;verticalAlign=top;labelBackgroundColor=#ffffff;fillColor=#f8cecc;strokeColor=#b85450;" vertex="1" parent="DI-KIiW6oiwfs0hpKIFr-2">
          <mxGeometry x="3130" y="60" width="80" height="80" as="geometry" />
        </mxCell>
        <mxCell id="DI-KIiW6oiwfs0hpKIFr-25" value="App Login" style="swimlane;html=1;startSize=20;horizontal=0;" vertex="1" parent="DI-KIiW6oiwfs0hpKIFr-1">
          <mxGeometry x="20" y="390" width="3510" height="1020" as="geometry" />
        </mxCell>
        <mxCell id="DI-KIiW6oiwfs0hpKIFr-86" value="" style="edgeStyle=orthogonalEdgeStyle;rounded=0;orthogonalLoop=1;jettySize=auto;html=1;entryX=0;entryY=0.5;entryDx=0;entryDy=0;" edge="1" parent="DI-KIiW6oiwfs0hpKIFr-25" source="DI-KIiW6oiwfs0hpKIFr-32" target="6ziixQBsmD4aVlStnV4u-2">
          <mxGeometry relative="1" as="geometry">
            <mxPoint x="510" y="80" as="targetPoint" />
          </mxGeometry>
        </mxCell>
        <mxCell id="DI-KIiW6oiwfs0hpKIFr-88" value="" style="edgeStyle=orthogonalEdgeStyle;rounded=0;orthogonalLoop=1;jettySize=auto;html=1;entryX=0.5;entryY=0;entryDx=0;entryDy=0;" edge="1" parent="DI-KIiW6oiwfs0hpKIFr-25" source="DI-KIiW6oiwfs0hpKIFr-32" target="DI-KIiW6oiwfs0hpKIFr-90">
          <mxGeometry relative="1" as="geometry">
            <mxPoint x="499.9999999999998" y="220.00000000000023" as="targetPoint" />
            <Array as="points">
              <mxPoint x="334" y="220" />
              <mxPoint x="650" y="220" />
            </Array>
          </mxGeometry>
        </mxCell>
        <mxCell id="DI-KIiW6oiwfs0hpKIFr-91" value="" style="edgeStyle=orthogonalEdgeStyle;rounded=0;orthogonalLoop=1;jettySize=auto;html=1;" edge="1" parent="DI-KIiW6oiwfs0hpKIFr-25" source="DI-KIiW6oiwfs0hpKIFr-32" target="DI-KIiW6oiwfs0hpKIFr-90">
          <mxGeometry relative="1" as="geometry">
            <Array as="points">
              <mxPoint x="334" y="360" />
            </Array>
          </mxGeometry>
        </mxCell>
        <mxCell id="DI-KIiW6oiwfs0hpKIFr-32" value="¿Qué opción seleccionó?" style="points=[[0.25,0.25,0],[0.5,0,0],[0.75,0.25,0],[1,0.5,0],[0.75,0.75,0],[0.5,1,0],[0.25,0.75,0],[0,0.5,0]];shape=mxgraph.bpmn.gateway2;html=1;verticalLabelPosition=bottom;labelBackgroundColor=#ffffff;verticalAlign=top;align=center;perimeter=rhombusPerimeter;outlineConnect=0;outline=none;symbol=none;fillColor=#fff2cc;strokeColor=#d6b656;" vertex="1" parent="DI-KIiW6oiwfs0hpKIFr-25">
          <mxGeometry x="294" y="100" width="80" height="80" as="geometry" />
        </mxCell>
        <mxCell id="DI-KIiW6oiwfs0hpKIFr-90" value="Intentar conexión a BD" style="whiteSpace=wrap;html=1;verticalAlign=middle;labelBackgroundColor=#ffffff;" vertex="1" parent="DI-KIiW6oiwfs0hpKIFr-25">
          <mxGeometry x="590" y="340" width="120" height="60" as="geometry" />
        </mxCell>
        <mxCell id="DI-KIiW6oiwfs0hpKIFr-92" value="Cerrar sesión" style="text;html=1;strokeColor=none;fillColor=none;align=center;verticalAlign=middle;whiteSpace=wrap;rounded=0;" vertex="1" parent="DI-KIiW6oiwfs0hpKIFr-25">
          <mxGeometry x="374" y="80" width="60" height="30" as="geometry" />
        </mxCell>
        <mxCell id="DI-KIiW6oiwfs0hpKIFr-93" value="Ver perfil" style="text;html=1;strokeColor=none;fillColor=none;align=center;verticalAlign=middle;whiteSpace=wrap;rounded=0;" vertex="1" parent="DI-KIiW6oiwfs0hpKIFr-25">
          <mxGeometry x="420" y="180" width="60" height="30" as="geometry" />
        </mxCell>
        <mxCell id="DI-KIiW6oiwfs0hpKIFr-94" value="Administrar usuarios" style="text;html=1;strokeColor=none;fillColor=none;align=center;verticalAlign=middle;whiteSpace=wrap;rounded=0;" vertex="1" parent="DI-KIiW6oiwfs0hpKIFr-25">
          <mxGeometry x="420" y="320" width="60" height="30" as="geometry" />
        </mxCell>
        <mxCell id="6ziixQBsmD4aVlStnV4u-2" value="Cerrar sesión" style="whiteSpace=wrap;html=1;fontColor=#000000;rounded=0;" vertex="1" parent="DI-KIiW6oiwfs0hpKIFr-25">
          <mxGeometry x="510" y="40" width="120" height="60" as="geometry" />
        </mxCell>
        <mxCell id="6ziixQBsmD4aVlStnV4u-3" value="Retornar vista de inicio de sesión" style="whiteSpace=wrap;html=1;fontColor=#000000;rounded=0;" vertex="1" parent="DI-KIiW6oiwfs0hpKIFr-25">
          <mxGeometry x="700" y="40" width="120" height="60" as="geometry" />
        </mxCell>
        <mxCell id="6ziixQBsmD4aVlStnV4u-1" value="" style="edgeStyle=orthogonalEdgeStyle;rounded=0;orthogonalLoop=1;jettySize=auto;html=1;" edge="1" parent="DI-KIiW6oiwfs0hpKIFr-25" source="6ziixQBsmD4aVlStnV4u-2" target="6ziixQBsmD4aVlStnV4u-3">
          <mxGeometry relative="1" as="geometry" />
        </mxCell>
        <mxCell id="RLMM_JU1Ex-sg60MbKiK-8" style="edgeStyle=orthogonalEdgeStyle;rounded=0;orthogonalLoop=1;jettySize=auto;html=1;entryX=0;entryY=0.5;entryDx=0;entryDy=0;entryPerimeter=0;" edge="1" parent="DI-KIiW6oiwfs0hpKIFr-25" source="hoXZ3hwqTcbkG7GW0WoH-1" target="RLMM_JU1Ex-sg60MbKiK-6">
          <mxGeometry relative="1" as="geometry" />
        </mxCell>
        <mxCell id="hoXZ3hwqTcbkG7GW0WoH-1" value="Sub Validar Conexión BD" style="points=[[0.25,0,0],[0.5,0,0],[0.75,0,0],[1,0.25,0],[1,0.5,0],[1,0.75,0],[0.75,1,0],[0.5,1,0],[0.25,1,0],[0,0.75,0],[0,0.5,0],[0,0.25,0]];shape=mxgraph.bpmn.task;whiteSpace=wrap;rectStyle=rounded;size=10;html=1;container=1;expand=0;collapsible=0;taskMarker=abstract;isLoopSub=1;" vertex="1" parent="DI-KIiW6oiwfs0hpKIFr-25">
          <mxGeometry x="780" y="340" width="120" height="80" as="geometry" />
        </mxCell>
        <mxCell id="RLMM_JU1Ex-sg60MbKiK-1" style="edgeStyle=orthogonalEdgeStyle;rounded=0;orthogonalLoop=1;jettySize=auto;html=1;entryX=0.5;entryY=1;entryDx=0;entryDy=0;" edge="1" parent="DI-KIiW6oiwfs0hpKIFr-25" target="RLMM_JU1Ex-sg60MbKiK-2">
          <mxGeometry relative="1" as="geometry">
            <mxPoint x="1030" y="340" as="sourcePoint" />
          </mxGeometry>
        </mxCell>
        <mxCell id="RLMM_JU1Ex-sg60MbKiK-2" value="Capturar error y bloquear ejecución del programa" style="whiteSpace=wrap;html=1;fontColor=#000000;rounded=0;" vertex="1" parent="DI-KIiW6oiwfs0hpKIFr-25">
          <mxGeometry x="970" y="230" width="120" height="60" as="geometry" />
        </mxCell>
        <mxCell id="RLMM_JU1Ex-sg60MbKiK-3" value="Redirigir al cliente a un error 500" style="whiteSpace=wrap;html=1;fontColor=#000000;rounded=0;" vertex="1" parent="DI-KIiW6oiwfs0hpKIFr-25">
          <mxGeometry x="970" y="140" width="120" height="60" as="geometry" />
        </mxCell>
        <mxCell id="RLMM_JU1Ex-sg60MbKiK-4" value="" style="edgeStyle=orthogonalEdgeStyle;rounded=0;orthogonalLoop=1;jettySize=auto;html=1;" edge="1" parent="DI-KIiW6oiwfs0hpKIFr-25" source="RLMM_JU1Ex-sg60MbKiK-2" target="RLMM_JU1Ex-sg60MbKiK-3">
          <mxGeometry relative="1" as="geometry" />
        </mxCell>
        <mxCell id="RLMM_JU1Ex-sg60MbKiK-5" value="NO" style="text;html=1;strokeColor=none;fillColor=none;align=center;verticalAlign=middle;whiteSpace=wrap;rounded=0;" vertex="1" parent="DI-KIiW6oiwfs0hpKIFr-25">
          <mxGeometry x="970" y="310" width="60" height="30" as="geometry" />
        </mxCell>
        <mxCell id="3bbA3ZIi3HwfIpkXqylJ-5" value="" style="edgeStyle=orthogonalEdgeStyle;rounded=0;orthogonalLoop=1;jettySize=auto;html=1;" edge="1" parent="DI-KIiW6oiwfs0hpKIFr-25" source="RLMM_JU1Ex-sg60MbKiK-6" target="3bbA3ZIi3HwfIpkXqylJ-4">
          <mxGeometry relative="1" as="geometry" />
        </mxCell>
        <mxCell id="RLMM_JU1Ex-sg60MbKiK-6" value="¿Se tiene la interfaz con la BD?" style="points=[[0.25,0.25,0],[0.5,0,0],[0.75,0.25,0],[1,0.5,0],[0.75,0.75,0],[0.5,1,0],[0.25,0.75,0],[0,0.5,0]];shape=mxgraph.bpmn.gateway2;html=1;verticalLabelPosition=bottom;labelBackgroundColor=#ffffff;verticalAlign=top;align=center;perimeter=rhombusPerimeter;outlineConnect=0;outline=none;symbol=none;fillColor=#fff2cc;strokeColor=#d6b656;" vertex="1" parent="DI-KIiW6oiwfs0hpKIFr-25">
          <mxGeometry x="990" y="340" width="80" height="80" as="geometry" />
        </mxCell>
        <mxCell id="RLMM_JU1Ex-sg60MbKiK-7" value="SI" style="text;html=1;strokeColor=none;fillColor=none;align=center;verticalAlign=middle;whiteSpace=wrap;rounded=0;" vertex="1" parent="DI-KIiW6oiwfs0hpKIFr-25">
          <mxGeometry x="1060" y="340" width="60" height="30" as="geometry" />
        </mxCell>
        <mxCell id="3bbA3ZIi3HwfIpkXqylJ-7" value="" style="edgeStyle=orthogonalEdgeStyle;rounded=0;orthogonalLoop=1;jettySize=auto;html=1;" edge="1" parent="DI-KIiW6oiwfs0hpKIFr-25" source="3bbA3ZIi3HwfIpkXqylJ-4" target="XeswV0nsIRNQ1k-ivFIV-19">
          <mxGeometry relative="1" as="geometry">
            <mxPoint x="1260" y="250" as="targetPoint" />
          </mxGeometry>
        </mxCell>
        <mxCell id="FFsUc8LxHQjWjqqM2JK--3" value="" style="edgeStyle=orthogonalEdgeStyle;rounded=0;orthogonalLoop=1;jettySize=auto;html=1;" edge="1" parent="DI-KIiW6oiwfs0hpKIFr-25" source="3bbA3ZIi3HwfIpkXqylJ-4" target="FFsUc8LxHQjWjqqM2JK--2">
          <mxGeometry relative="1" as="geometry" />
        </mxCell>
        <mxCell id="3bbA3ZIi3HwfIpkXqylJ-4" value="¿Qué operación realizará?" style="points=[[0.25,0.25,0],[0.5,0,0],[0.75,0.25,0],[1,0.5,0],[0.75,0.75,0],[0.5,1,0],[0.25,0.75,0],[0,0.5,0]];shape=mxgraph.bpmn.gateway2;html=1;verticalLabelPosition=bottom;labelBackgroundColor=#ffffff;verticalAlign=top;align=center;perimeter=rhombusPerimeter;outlineConnect=0;outline=none;symbol=none;fillColor=#fff2cc;strokeColor=#d6b656;" vertex="1" parent="DI-KIiW6oiwfs0hpKIFr-25">
          <mxGeometry x="1220" y="340" width="80" height="80" as="geometry" />
        </mxCell>
        <mxCell id="3bbA3ZIi3HwfIpkXqylJ-8" value="Ver perfil" style="text;html=1;strokeColor=none;fillColor=none;align=center;verticalAlign=middle;whiteSpace=wrap;rounded=0;" vertex="1" parent="DI-KIiW6oiwfs0hpKIFr-25">
          <mxGeometry x="1280" y="310" width="60" height="30" as="geometry" />
        </mxCell>
        <mxCell id="XeswV0nsIRNQ1k-ivFIV-19" value="Prepara vista con los datos del usuario" style="whiteSpace=wrap;html=1;fontColor=#000000;rounded=0;" vertex="1" parent="DI-KIiW6oiwfs0hpKIFr-25">
          <mxGeometry x="1200" y="185" width="120" height="60" as="geometry" />
        </mxCell>
        <mxCell id="XeswV0nsIRNQ1k-ivFIV-20" value="Retornar vista de perfil del usuario con sus datos" style="whiteSpace=wrap;html=1;fontColor=#000000;rounded=0;" vertex="1" parent="DI-KIiW6oiwfs0hpKIFr-25">
          <mxGeometry x="1200" y="45" width="120" height="60" as="geometry" />
        </mxCell>
        <mxCell id="XeswV0nsIRNQ1k-ivFIV-18" value="" style="edgeStyle=orthogonalEdgeStyle;rounded=0;orthogonalLoop=1;jettySize=auto;html=1;" edge="1" parent="DI-KIiW6oiwfs0hpKIFr-25" source="XeswV0nsIRNQ1k-ivFIV-19" target="XeswV0nsIRNQ1k-ivFIV-20">
          <mxGeometry relative="1" as="geometry" />
        </mxCell>
        <mxCell id="XeswV0nsIRNQ1k-ivFIV-22" value="Validar datos del usuario y autenticación" style="whiteSpace=wrap;html=1;fontColor=#000000;rounded=0;" vertex="1" parent="DI-KIiW6oiwfs0hpKIFr-25">
          <mxGeometry x="1810" y="215" width="120" height="60" as="geometry" />
        </mxCell>
        <mxCell id="XeswV0nsIRNQ1k-ivFIV-25" value="¿Se valida la autenticación?" style="points=[[0.25,0.25,0],[0.5,0,0],[0.75,0.25,0],[1,0.5,0],[0.75,0.75,0],[0.5,1,0],[0.25,0.75,0],[0,0.5,0]];shape=mxgraph.bpmn.gateway2;html=1;verticalLabelPosition=bottom;labelBackgroundColor=#ffffff;verticalAlign=top;align=center;perimeter=rhombusPerimeter;outlineConnect=0;outline=none;symbol=none;fillColor=#fff2cc;strokeColor=#d6b656;" vertex="1" parent="DI-KIiW6oiwfs0hpKIFr-25">
          <mxGeometry x="1630" y="205" width="80" height="80" as="geometry" />
        </mxCell>
        <mxCell id="XeswV0nsIRNQ1k-ivFIV-21" value="" style="edgeStyle=orthogonalEdgeStyle;rounded=0;orthogonalLoop=1;jettySize=auto;html=1;entryX=1;entryY=0.5;entryDx=0;entryDy=0;entryPerimeter=0;" edge="1" parent="DI-KIiW6oiwfs0hpKIFr-25" source="XeswV0nsIRNQ1k-ivFIV-22" target="XeswV0nsIRNQ1k-ivFIV-25">
          <mxGeometry relative="1" as="geometry">
            <mxPoint x="1730" y="245" as="targetPoint" />
          </mxGeometry>
        </mxCell>
        <mxCell id="XeswV0nsIRNQ1k-ivFIV-27" value="NO" style="text;html=1;strokeColor=none;fillColor=none;align=center;verticalAlign=middle;whiteSpace=wrap;rounded=0;" vertex="1" parent="DI-KIiW6oiwfs0hpKIFr-25">
          <mxGeometry x="1660" y="155" width="60" height="30" as="geometry" />
        </mxCell>
        <mxCell id="XeswV0nsIRNQ1k-ivFIV-28" value="SI" style="text;html=1;strokeColor=none;fillColor=none;align=center;verticalAlign=middle;whiteSpace=wrap;rounded=0;" vertex="1" parent="DI-KIiW6oiwfs0hpKIFr-25">
          <mxGeometry x="1580" y="205" width="60" height="30" as="geometry" />
        </mxCell>
        <mxCell id="XeswV0nsIRNQ1k-ivFIV-29" value="Realizar actualización con base de datos" style="whiteSpace=wrap;html=1;verticalAlign=middle;labelBackgroundColor=#ffffff;" vertex="1" parent="DI-KIiW6oiwfs0hpKIFr-25">
          <mxGeometry x="1430" y="360" width="120" height="60" as="geometry" />
        </mxCell>
        <mxCell id="XeswV0nsIRNQ1k-ivFIV-24" value="" style="edgeStyle=orthogonalEdgeStyle;rounded=0;orthogonalLoop=1;jettySize=auto;html=1;" edge="1" parent="DI-KIiW6oiwfs0hpKIFr-25" source="XeswV0nsIRNQ1k-ivFIV-25" target="XeswV0nsIRNQ1k-ivFIV-29">
          <mxGeometry relative="1" as="geometry" />
        </mxCell>
        <mxCell id="XeswV0nsIRNQ1k-ivFIV-30" style="edgeStyle=orthogonalEdgeStyle;rounded=0;orthogonalLoop=1;jettySize=auto;html=1;entryX=1;entryY=0.5;entryDx=0;entryDy=0;" edge="1" parent="DI-KIiW6oiwfs0hpKIFr-25" source="XeswV0nsIRNQ1k-ivFIV-31" target="XeswV0nsIRNQ1k-ivFIV-20">
          <mxGeometry relative="1" as="geometry">
            <Array as="points">
              <mxPoint x="1400" y="330" />
              <mxPoint x="1400" y="75" />
            </Array>
          </mxGeometry>
        </mxCell>
        <mxCell id="XeswV0nsIRNQ1k-ivFIV-31" value="Actualizar vista de perfil de datos" style="whiteSpace=wrap;html=1;labelBackgroundColor=#ffffff;" vertex="1" parent="DI-KIiW6oiwfs0hpKIFr-25">
          <mxGeometry x="1590" y="455" width="120" height="60" as="geometry" />
        </mxCell>
        <mxCell id="FFsUc8LxHQjWjqqM2JK--6" value="" style="edgeStyle=orthogonalEdgeStyle;rounded=0;orthogonalLoop=1;jettySize=auto;html=1;" edge="1" parent="DI-KIiW6oiwfs0hpKIFr-25" source="FFsUc8LxHQjWjqqM2JK--2" target="FFsUc8LxHQjWjqqM2JK--5">
          <mxGeometry relative="1" as="geometry" />
        </mxCell>
        <mxCell id="FFsUc8LxHQjWjqqM2JK--2" value="Administrar usuarios" style="whiteSpace=wrap;html=1;verticalAlign=middle;labelBackgroundColor=#ffffff;" vertex="1" parent="DI-KIiW6oiwfs0hpKIFr-25">
          <mxGeometry x="1200" y="560" width="120" height="60" as="geometry" />
        </mxCell>
        <mxCell id="FFsUc8LxHQjWjqqM2JK--4" value="Administrar usuarios" style="text;html=1;strokeColor=none;fillColor=none;align=center;verticalAlign=middle;whiteSpace=wrap;rounded=0;" vertex="1" parent="DI-KIiW6oiwfs0hpKIFr-25">
          <mxGeometry x="1270" y="470" width="60" height="30" as="geometry" />
        </mxCell>
        <mxCell id="FFsUc8LxHQjWjqqM2JK--5" value="Realizar consulta en base de datos de todos los usuarios" style="whiteSpace=wrap;html=1;labelBackgroundColor=#ffffff;" vertex="1" parent="DI-KIiW6oiwfs0hpKIFr-25">
          <mxGeometry x="1200" y="700" width="120" height="60" as="geometry" />
        </mxCell>
        <mxCell id="FFsUc8LxHQjWjqqM2JK--12" value="" style="edgeStyle=orthogonalEdgeStyle;rounded=0;orthogonalLoop=1;jettySize=auto;html=1;" edge="1" parent="DI-KIiW6oiwfs0hpKIFr-25" source="FFsUc8LxHQjWjqqM2JK--9" target="FFsUc8LxHQjWjqqM2JK--11">
          <mxGeometry relative="1" as="geometry" />
        </mxCell>
        <mxCell id="FFsUc8LxHQjWjqqM2JK--9" value="Preparar vista de administración de usaurios" style="whiteSpace=wrap;html=1;labelBackgroundColor=#ffffff;" vertex="1" parent="DI-KIiW6oiwfs0hpKIFr-25">
          <mxGeometry x="2070" y="570" width="120" height="60" as="geometry" />
        </mxCell>
        <mxCell id="FFsUc8LxHQjWjqqM2JK--11" value="Retornar vista" style="whiteSpace=wrap;html=1;labelBackgroundColor=#ffffff;" vertex="1" parent="DI-KIiW6oiwfs0hpKIFr-25">
          <mxGeometry x="2070" y="90" width="120" height="60" as="geometry" />
        </mxCell>
        <mxCell id="FFsUc8LxHQjWjqqM2JK--21" value="" style="edgeStyle=orthogonalEdgeStyle;rounded=0;orthogonalLoop=1;jettySize=auto;html=1;entryX=0;entryY=0.5;entryDx=0;entryDy=0;" edge="1" parent="DI-KIiW6oiwfs0hpKIFr-25" source="FFsUc8LxHQjWjqqM2JK--19" target="FFsUc8LxHQjWjqqM2JK--31">
          <mxGeometry relative="1" as="geometry">
            <mxPoint x="2520" y="110" as="targetPoint" />
          </mxGeometry>
        </mxCell>
        <mxCell id="FFsUc8LxHQjWjqqM2JK--27" value="" style="edgeStyle=orthogonalEdgeStyle;rounded=0;orthogonalLoop=1;jettySize=auto;html=1;exitX=0.5;exitY=1;exitDx=0;exitDy=0;exitPerimeter=0;" edge="1" parent="DI-KIiW6oiwfs0hpKIFr-25" source="FFsUc8LxHQjWjqqM2JK--19" target="FFsUc8LxHQjWjqqM2JK--26">
          <mxGeometry relative="1" as="geometry">
            <mxPoint x="2390" y="210" as="sourcePoint" />
            <Array as="points">
              <mxPoint x="2390" y="230" />
            </Array>
          </mxGeometry>
        </mxCell>
        <mxCell id="FFsUc8LxHQjWjqqM2JK--55" value="" style="edgeStyle=orthogonalEdgeStyle;rounded=0;orthogonalLoop=1;jettySize=auto;html=1;exitX=0.5;exitY=1;exitDx=0;exitDy=0;exitPerimeter=0;" edge="1" parent="DI-KIiW6oiwfs0hpKIFr-25" source="FFsUc8LxHQjWjqqM2JK--19" target="FFsUc8LxHQjWjqqM2JK--54">
          <mxGeometry relative="1" as="geometry">
            <Array as="points">
              <mxPoint x="2390" y="350" />
            </Array>
          </mxGeometry>
        </mxCell>
        <mxCell id="FFsUc8LxHQjWjqqM2JK--59" value="" style="edgeStyle=orthogonalEdgeStyle;rounded=0;orthogonalLoop=1;jettySize=auto;html=1;" edge="1" parent="DI-KIiW6oiwfs0hpKIFr-25" source="FFsUc8LxHQjWjqqM2JK--19" target="FFsUc8LxHQjWjqqM2JK--58">
          <mxGeometry relative="1" as="geometry" />
        </mxCell>
        <mxCell id="FFsUc8LxHQjWjqqM2JK--19" value="¿Qué operación realizará?" style="points=[[0.25,0.25,0],[0.5,0,0],[0.75,0.25,0],[1,0.5,0],[0.75,0.75,0],[0.5,1,0],[0.25,0.75,0],[0,0.5,0]];shape=mxgraph.bpmn.gateway2;html=1;verticalLabelPosition=bottom;labelBackgroundColor=#ffffff;verticalAlign=top;align=center;perimeter=rhombusPerimeter;outlineConnect=0;outline=none;symbol=none;fillColor=#fff2cc;strokeColor=#d6b656;" vertex="1" parent="DI-KIiW6oiwfs0hpKIFr-25">
          <mxGeometry x="2350" y="70" width="80" height="80" as="geometry" />
        </mxCell>
        <mxCell id="FFsUc8LxHQjWjqqM2JK--22" value="Editar usuario" style="text;html=1;strokeColor=none;fillColor=none;align=center;verticalAlign=middle;whiteSpace=wrap;rounded=0;" vertex="1" parent="DI-KIiW6oiwfs0hpKIFr-25">
          <mxGeometry x="2430" y="185" width="60" height="30" as="geometry" />
        </mxCell>
        <mxCell id="FFsUc8LxHQjWjqqM2JK--23" value="Visualizar usuario" style="text;html=1;strokeColor=none;fillColor=none;align=center;verticalAlign=middle;whiteSpace=wrap;rounded=0;" vertex="1" parent="DI-KIiW6oiwfs0hpKIFr-25">
          <mxGeometry x="2410" y="310" width="60" height="30" as="geometry" />
        </mxCell>
        <mxCell id="FFsUc8LxHQjWjqqM2JK--25" value="Eliminar usuario" style="text;html=1;strokeColor=none;fillColor=none;align=center;verticalAlign=middle;whiteSpace=wrap;rounded=0;" vertex="1" parent="DI-KIiW6oiwfs0hpKIFr-25">
          <mxGeometry x="2550" y="30" width="60" height="30" as="geometry" />
        </mxCell>
        <mxCell id="FFsUc8LxHQjWjqqM2JK--50" value="" style="edgeStyle=orthogonalEdgeStyle;rounded=0;orthogonalLoop=1;jettySize=auto;html=1;" edge="1" parent="DI-KIiW6oiwfs0hpKIFr-25" source="FFsUc8LxHQjWjqqM2JK--26" target="FFsUc8LxHQjWjqqM2JK--49">
          <mxGeometry relative="1" as="geometry" />
        </mxCell>
        <mxCell id="FFsUc8LxHQjWjqqM2JK--26" value="Mostrar información del usuario en nueva vista" style="whiteSpace=wrap;html=1;verticalAlign=middle;labelBackgroundColor=#ffffff;" vertex="1" parent="DI-KIiW6oiwfs0hpKIFr-25">
          <mxGeometry x="2510" y="205" width="120" height="60" as="geometry" />
        </mxCell>
        <mxCell id="FFsUc8LxHQjWjqqM2JK--28" style="edgeStyle=orthogonalEdgeStyle;rounded=0;orthogonalLoop=1;jettySize=auto;html=1;exitX=0.5;exitY=1;exitDx=0;exitDy=0;" edge="1" parent="DI-KIiW6oiwfs0hpKIFr-25" source="FFsUc8LxHQjWjqqM2JK--25" target="FFsUc8LxHQjWjqqM2JK--25">
          <mxGeometry relative="1" as="geometry" />
        </mxCell>
        <mxCell id="FFsUc8LxHQjWjqqM2JK--31" value="Mostrar advertencia" style="whiteSpace=wrap;html=1;verticalAlign=middle;labelBackgroundColor=#ffffff;" vertex="1" parent="DI-KIiW6oiwfs0hpKIFr-25">
          <mxGeometry x="2650" y="30" width="120" height="60" as="geometry" />
        </mxCell>
        <mxCell id="FFsUc8LxHQjWjqqM2JK--41" value="" style="edgeStyle=orthogonalEdgeStyle;rounded=0;orthogonalLoop=1;jettySize=auto;html=1;" edge="1" parent="DI-KIiW6oiwfs0hpKIFr-25" source="FFsUc8LxHQjWjqqM2JK--36" target="FFsUc8LxHQjWjqqM2JK--40">
          <mxGeometry relative="1" as="geometry" />
        </mxCell>
        <mxCell id="FFsUc8LxHQjWjqqM2JK--36" value="Eliminar al usuario" style="whiteSpace=wrap;html=1;verticalAlign=middle;labelBackgroundColor=#ffffff;" vertex="1" parent="DI-KIiW6oiwfs0hpKIFr-25">
          <mxGeometry x="2800" y="30" width="120" height="60" as="geometry" />
        </mxCell>
        <mxCell id="FFsUc8LxHQjWjqqM2JK--40" value="Actualizar vista" style="whiteSpace=wrap;html=1;labelBackgroundColor=#ffffff;" vertex="1" parent="DI-KIiW6oiwfs0hpKIFr-25">
          <mxGeometry x="3000" y="30" width="120" height="60" as="geometry" />
        </mxCell>
        <mxCell id="FFsUc8LxHQjWjqqM2JK--49" value="Actualizar usuario" style="whiteSpace=wrap;html=1;labelBackgroundColor=#ffffff;" vertex="1" parent="DI-KIiW6oiwfs0hpKIFr-25">
          <mxGeometry x="2720" y="204" width="120" height="60" as="geometry" />
        </mxCell>
        <mxCell id="FFsUc8LxHQjWjqqM2JK--57" value="" style="edgeStyle=orthogonalEdgeStyle;rounded=0;orthogonalLoop=1;jettySize=auto;html=1;" edge="1" parent="DI-KIiW6oiwfs0hpKIFr-25" source="FFsUc8LxHQjWjqqM2JK--54" target="FFsUc8LxHQjWjqqM2JK--56">
          <mxGeometry relative="1" as="geometry" />
        </mxCell>
        <mxCell id="FFsUc8LxHQjWjqqM2JK--54" value="Mostrar información del usuario" style="whiteSpace=wrap;html=1;verticalAlign=top;labelBackgroundColor=#ffffff;" vertex="1" parent="DI-KIiW6oiwfs0hpKIFr-25">
          <mxGeometry x="2510" y="320" width="120" height="60" as="geometry" />
        </mxCell>
        <mxCell id="FFsUc8LxHQjWjqqM2JK--56" value="" style="ellipse;whiteSpace=wrap;html=1;verticalAlign=top;labelBackgroundColor=#ffffff;fillColor=#f8cecc;strokeColor=#b85450;" vertex="1" parent="DI-KIiW6oiwfs0hpKIFr-25">
          <mxGeometry x="2660" y="460" width="80" height="80" as="geometry" />
        </mxCell>
        <mxCell id="-tCua3ovu1ER64sum0gI-1" style="edgeStyle=orthogonalEdgeStyle;rounded=0;orthogonalLoop=1;jettySize=auto;html=1;entryX=0;entryY=0.5;entryDx=0;entryDy=0;exitX=0.5;exitY=1;exitDx=0;exitDy=0;" edge="1" parent="DI-KIiW6oiwfs0hpKIFr-25" source="FFsUc8LxHQjWjqqM2JK--58" target="KZk-OScltLjR_nGIYEY4-3">
          <mxGeometry relative="1" as="geometry">
            <mxPoint x="2410" y="750" as="targetPoint" />
          </mxGeometry>
        </mxCell>
        <mxCell id="FFsUc8LxHQjWjqqM2JK--58" value="Cerrar sesión" style="whiteSpace=wrap;html=1;verticalAlign=middle;labelBackgroundColor=#ffffff;" vertex="1" parent="DI-KIiW6oiwfs0hpKIFr-25">
          <mxGeometry x="2330" y="490" width="120" height="60" as="geometry" />
        </mxCell>
        <mxCell id="FFsUc8LxHQjWjqqM2JK--60" value="Cerrar sesión" style="text;html=1;strokeColor=none;fillColor=none;align=center;verticalAlign=middle;whiteSpace=wrap;rounded=0;" vertex="1" parent="DI-KIiW6oiwfs0hpKIFr-25">
          <mxGeometry x="2320" y="420" width="60" height="30" as="geometry" />
        </mxCell>
        <mxCell id="KZk-OScltLjR_nGIYEY4-3" value="Retornar vista de inicio de sesión" style="whiteSpace=wrap;html=1;fontColor=#000000;rounded=0;" vertex="1" parent="DI-KIiW6oiwfs0hpKIFr-25">
          <mxGeometry x="3110" y="540" width="120" height="60" as="geometry" />
        </mxCell>
        <mxCell id="DI-KIiW6oiwfs0hpKIFr-68" value="Base de datos" style="swimlane;html=1;startSize=20;horizontal=0;" vertex="1" parent="DI-KIiW6oiwfs0hpKIFr-1">
          <mxGeometry x="20" y="1410" width="3510" height="120" as="geometry" />
        </mxCell>
        <mxCell id="mMkSskttF8RtLLWu0ZFW-1" value="Conectar App y BD" style="points=[[0.25,0,0],[0.5,0,0],[0.75,0,0],[1,0.25,0],[1,0.5,0],[1,0.75,0],[0.75,1,0],[0.5,1,0],[0.25,1,0],[0,0.75,0],[0,0.5,0],[0,0.25,0]];shape=mxgraph.bpmn.task;whiteSpace=wrap;rectStyle=rounded;size=10;html=1;container=1;expand=0;collapsible=0;taskMarker=abstract;isLoopSub=1;" vertex="1" parent="DI-KIiW6oiwfs0hpKIFr-68">
          <mxGeometry x="590" y="20" width="120" height="80" as="geometry" />
        </mxCell>
        <mxCell id="XeswV0nsIRNQ1k-ivFIV-32" value="Realizar operación en la base de datos" style="whiteSpace=wrap;html=1;labelBackgroundColor=#ffffff;" vertex="1" parent="DI-KIiW6oiwfs0hpKIFr-68">
          <mxGeometry x="1430" y="40" width="120" height="60" as="geometry" />
        </mxCell>
        <mxCell id="FFsUc8LxHQjWjqqM2JK--7" value="Realizar operación en la base de datos" style="whiteSpace=wrap;html=1;labelBackgroundColor=#ffffff;" vertex="1" parent="DI-KIiW6oiwfs0hpKIFr-68">
          <mxGeometry x="1740" y="30" width="120" height="60" as="geometry" />
        </mxCell>
        <mxCell id="FFsUc8LxHQjWjqqM2JK--46" value="Realizar operación en la base de datos" style="whiteSpace=wrap;html=1;labelBackgroundColor=#ffffff;" vertex="1" parent="DI-KIiW6oiwfs0hpKIFr-68">
          <mxGeometry x="2800" y="30" width="120" height="60" as="geometry" />
        </mxCell>
        <mxCell id="DI-KIiW6oiwfs0hpKIFr-72" style="edgeStyle=orthogonalEdgeStyle;rounded=0;orthogonalLoop=1;jettySize=auto;html=1;entryX=0.5;entryY=0;entryDx=0;entryDy=0;entryPerimeter=0;dashed=1;" edge="1" parent="DI-KIiW6oiwfs0hpKIFr-1" source="DI-KIiW6oiwfs0hpKIFr-7" target="DI-KIiW6oiwfs0hpKIFr-32">
          <mxGeometry relative="1" as="geometry" />
        </mxCell>
        <mxCell id="A9AXx7of_nsUe-xpAV8m-2" style="edgeStyle=orthogonalEdgeStyle;rounded=0;orthogonalLoop=1;jettySize=auto;html=1;dashed=1;" edge="1" parent="DI-KIiW6oiwfs0hpKIFr-1" source="6ziixQBsmD4aVlStnV4u-3" target="A9AXx7of_nsUe-xpAV8m-1">
          <mxGeometry relative="1" as="geometry" />
        </mxCell>
        <mxCell id="mMkSskttF8RtLLWu0ZFW-2" style="edgeStyle=orthogonalEdgeStyle;rounded=0;orthogonalLoop=1;jettySize=auto;html=1;entryX=0.5;entryY=0;entryDx=0;entryDy=0;entryPerimeter=0;dashed=1;" edge="1" parent="DI-KIiW6oiwfs0hpKIFr-1" source="DI-KIiW6oiwfs0hpKIFr-90" target="mMkSskttF8RtLLWu0ZFW-1">
          <mxGeometry relative="1" as="geometry" />
        </mxCell>
        <mxCell id="hoXZ3hwqTcbkG7GW0WoH-2" style="edgeStyle=orthogonalEdgeStyle;rounded=0;orthogonalLoop=1;jettySize=auto;html=1;entryX=0.5;entryY=1;entryDx=0;entryDy=0;entryPerimeter=0;dashed=1;" edge="1" parent="DI-KIiW6oiwfs0hpKIFr-1" source="mMkSskttF8RtLLWu0ZFW-1" target="hoXZ3hwqTcbkG7GW0WoH-1">
          <mxGeometry relative="1" as="geometry" />
        </mxCell>
        <mxCell id="3bbA3ZIi3HwfIpkXqylJ-1" style="edgeStyle=orthogonalEdgeStyle;rounded=0;orthogonalLoop=1;jettySize=auto;html=1;entryX=0.5;entryY=1;entryDx=0;entryDy=0;dashed=1;" edge="1" parent="DI-KIiW6oiwfs0hpKIFr-1" source="RLMM_JU1Ex-sg60MbKiK-3" target="A9AXx7of_nsUe-xpAV8m-1">
          <mxGeometry relative="1" as="geometry">
            <Array as="points">
              <mxPoint x="1050" y="390" />
              <mxPoint x="780" y="390" />
            </Array>
          </mxGeometry>
        </mxCell>
        <mxCell id="XeswV0nsIRNQ1k-ivFIV-33" style="edgeStyle=orthogonalEdgeStyle;rounded=0;orthogonalLoop=1;jettySize=auto;html=1;entryX=0.5;entryY=0;entryDx=0;entryDy=0;dashed=1;" edge="1" parent="DI-KIiW6oiwfs0hpKIFr-1" source="XeswV0nsIRNQ1k-ivFIV-29" target="XeswV0nsIRNQ1k-ivFIV-32">
          <mxGeometry relative="1" as="geometry" />
        </mxCell>
        <mxCell id="XeswV0nsIRNQ1k-ivFIV-34" value="" style="edgeStyle=orthogonalEdgeStyle;rounded=0;orthogonalLoop=1;jettySize=auto;html=1;dashed=1;" edge="1" parent="DI-KIiW6oiwfs0hpKIFr-1" source="XeswV0nsIRNQ1k-ivFIV-32" target="XeswV0nsIRNQ1k-ivFIV-31">
          <mxGeometry relative="1" as="geometry" />
        </mxCell>
        <mxCell id="xoBdMyUVz88NA2BkI0Zb-1" style="edgeStyle=orthogonalEdgeStyle;rounded=0;orthogonalLoop=1;jettySize=auto;html=1;entryX=0.5;entryY=1;entryDx=0;entryDy=0;dashed=1;" edge="1" parent="DI-KIiW6oiwfs0hpKIFr-1" source="XeswV0nsIRNQ1k-ivFIV-20" target="uHELYMVDwDIsDcxjX7bG-2">
          <mxGeometry relative="1" as="geometry" />
        </mxCell>
        <mxCell id="kGIRhWlGhrKshWYU8L8U-1" style="edgeStyle=orthogonalEdgeStyle;rounded=0;orthogonalLoop=1;jettySize=auto;html=1;entryX=0.5;entryY=0;entryDx=0;entryDy=0;exitX=0.5;exitY=1;exitDx=0;exitDy=0;dashed=1;" edge="1" parent="DI-KIiW6oiwfs0hpKIFr-1" source="uHELYMVDwDIsDcxjX7bG-9" target="6ziixQBsmD4aVlStnV4u-2">
          <mxGeometry relative="1" as="geometry" />
        </mxCell>
        <mxCell id="FFsUc8LxHQjWjqqM2JK--8" value="" style="edgeStyle=orthogonalEdgeStyle;rounded=0;orthogonalLoop=1;jettySize=auto;html=1;dashed=1;" edge="1" parent="DI-KIiW6oiwfs0hpKIFr-1" source="FFsUc8LxHQjWjqqM2JK--5" target="FFsUc8LxHQjWjqqM2JK--7">
          <mxGeometry relative="1" as="geometry" />
        </mxCell>
        <mxCell id="FFsUc8LxHQjWjqqM2JK--10" value="" style="edgeStyle=orthogonalEdgeStyle;rounded=0;orthogonalLoop=1;jettySize=auto;html=1;" edge="1" parent="DI-KIiW6oiwfs0hpKIFr-1" source="FFsUc8LxHQjWjqqM2JK--7" target="FFsUc8LxHQjWjqqM2JK--9">
          <mxGeometry relative="1" as="geometry" />
        </mxCell>
        <mxCell id="FFsUc8LxHQjWjqqM2JK--14" value="" style="edgeStyle=orthogonalEdgeStyle;rounded=0;orthogonalLoop=1;jettySize=auto;html=1;dashed=1;" edge="1" parent="DI-KIiW6oiwfs0hpKIFr-1" source="FFsUc8LxHQjWjqqM2JK--11" target="FFsUc8LxHQjWjqqM2JK--13">
          <mxGeometry relative="1" as="geometry" />
        </mxCell>
        <mxCell id="FFsUc8LxHQjWjqqM2JK--18" value="" style="edgeStyle=orthogonalEdgeStyle;rounded=0;orthogonalLoop=1;jettySize=auto;html=1;entryX=0.5;entryY=0;entryDx=0;entryDy=0;entryPerimeter=0;" edge="1" parent="DI-KIiW6oiwfs0hpKIFr-1" source="FFsUc8LxHQjWjqqM2JK--15" target="FFsUc8LxHQjWjqqM2JK--19">
          <mxGeometry relative="1" as="geometry">
            <mxPoint x="2410" y="450" as="targetPoint" />
          </mxGeometry>
        </mxCell>
        <mxCell id="FFsUc8LxHQjWjqqM2JK--34" value="" style="edgeStyle=orthogonalEdgeStyle;rounded=0;orthogonalLoop=1;jettySize=auto;html=1;dashed=1;entryX=0.5;entryY=1;entryDx=0;entryDy=0;entryPerimeter=0;" edge="1" parent="DI-KIiW6oiwfs0hpKIFr-1" source="FFsUc8LxHQjWjqqM2JK--31" target="FFsUc8LxHQjWjqqM2JK--35">
          <mxGeometry relative="1" as="geometry">
            <mxPoint x="2730" y="255" as="targetPoint" />
          </mxGeometry>
        </mxCell>
        <mxCell id="FFsUc8LxHQjWjqqM2JK--37" value="" style="edgeStyle=orthogonalEdgeStyle;rounded=0;orthogonalLoop=1;jettySize=auto;html=1;" edge="1" parent="DI-KIiW6oiwfs0hpKIFr-1" source="FFsUc8LxHQjWjqqM2JK--35" target="FFsUc8LxHQjWjqqM2JK--36">
          <mxGeometry relative="1" as="geometry" />
        </mxCell>
        <mxCell id="FFsUc8LxHQjWjqqM2JK--42" style="edgeStyle=orthogonalEdgeStyle;rounded=0;orthogonalLoop=1;jettySize=auto;html=1;entryX=0.5;entryY=0;entryDx=0;entryDy=0;dashed=1;" edge="1" parent="DI-KIiW6oiwfs0hpKIFr-1" source="FFsUc8LxHQjWjqqM2JK--40" target="FFsUc8LxHQjWjqqM2JK--13">
          <mxGeometry relative="1" as="geometry">
            <Array as="points">
              <mxPoint x="3080" y="120" />
              <mxPoint x="2150" y="120" />
            </Array>
          </mxGeometry>
        </mxCell>
        <mxCell id="FFsUc8LxHQjWjqqM2JK--47" style="edgeStyle=orthogonalEdgeStyle;rounded=0;orthogonalLoop=1;jettySize=auto;html=1;entryX=0.5;entryY=0;entryDx=0;entryDy=0;dashed=1;" edge="1" parent="DI-KIiW6oiwfs0hpKIFr-1" source="FFsUc8LxHQjWjqqM2JK--36" target="FFsUc8LxHQjWjqqM2JK--46">
          <mxGeometry relative="1" as="geometry" />
        </mxCell>
        <mxCell id="FFsUc8LxHQjWjqqM2JK--48" style="edgeStyle=orthogonalEdgeStyle;rounded=0;orthogonalLoop=1;jettySize=auto;html=1;entryX=0.5;entryY=1;entryDx=0;entryDy=0;dashed=1;" edge="1" parent="DI-KIiW6oiwfs0hpKIFr-1" source="FFsUc8LxHQjWjqqM2JK--46" target="FFsUc8LxHQjWjqqM2JK--40">
          <mxGeometry relative="1" as="geometry" />
        </mxCell>
        <mxCell id="FFsUc8LxHQjWjqqM2JK--52" style="edgeStyle=orthogonalEdgeStyle;rounded=0;orthogonalLoop=1;jettySize=auto;html=1;entryX=0.5;entryY=0;entryDx=0;entryDy=0;dashed=1;" edge="1" parent="DI-KIiW6oiwfs0hpKIFr-1" source="FFsUc8LxHQjWjqqM2JK--49" target="FFsUc8LxHQjWjqqM2JK--46">
          <mxGeometry relative="1" as="geometry" />
        </mxCell>
        <mxCell id="KZk-OScltLjR_nGIYEY4-4" style="edgeStyle=orthogonalEdgeStyle;rounded=0;orthogonalLoop=1;jettySize=auto;html=1;entryX=0.5;entryY=1;entryDx=0;entryDy=0;" edge="1" parent="DI-KIiW6oiwfs0hpKIFr-1" source="KZk-OScltLjR_nGIYEY4-3" target="KZk-OScltLjR_nGIYEY4-5">
          <mxGeometry relative="1" as="geometry">
            <mxPoint x="3190" y="280" as="targetPoint" />
          </mxGeometry>
        </mxCell>
        <mxCell id="KZk-OScltLjR_nGIYEY4-1" value="Retornar vista de inicio de sesión" style="whiteSpace=wrap;html=1;fontColor=#000000;rounded=0;" vertex="1" parent="1">
          <mxGeometry x="930" y="460" width="120" height="60" as="geometry" />
        </mxCell>
      </root>
    </mxGraphModel>
  </diagram>
  <diagram id="OteKu9hajf9n9s7NTHZk" name="Sub-Conectar App y BD">
    <mxGraphModel dx="1393" dy="835" grid="1" gridSize="10" guides="1" tooltips="1" connect="1" arrows="1" fold="1" page="1" pageScale="1" pageWidth="827" pageHeight="1169" math="0" shadow="0">
      <root>
        <mxCell id="0" />
        <mxCell id="1" parent="0" />
        <mxCell id="e5MXdNf6GQPyOGkP5QWz-1" value="Base de datos" style="swimlane;html=1;startSize=20;horizontal=0;" parent="1" vertex="1">
          <mxGeometry x="40" y="310" width="710" height="380" as="geometry" />
        </mxCell>
        <mxCell id="e5MXdNf6GQPyOGkP5QWz-2" value="" style="edgeStyle=orthogonalEdgeStyle;rounded=0;orthogonalLoop=1;jettySize=auto;html=1;entryX=0;entryY=0.5;entryDx=0;entryDy=0;" parent="e5MXdNf6GQPyOGkP5QWz-1" source="e5MXdNf6GQPyOGkP5QWz-3" target="e5MXdNf6GQPyOGkP5QWz-6" edge="1">
          <mxGeometry relative="1" as="geometry" />
        </mxCell>
        <mxCell id="e5MXdNf6GQPyOGkP5QWz-3" value="Recibir solicitud de conexión" style="rounded=0;whiteSpace=wrap;html=1;fontFamily=Helvetica;fontSize=12;fontColor=#000000;align=center;" parent="e5MXdNf6GQPyOGkP5QWz-1" vertex="1">
          <mxGeometry x="121" y="140" width="96" height="70" as="geometry" />
        </mxCell>
        <mxCell id="e5MXdNf6GQPyOGkP5QWz-4" value="" style="edgeStyle=orthogonalEdgeStyle;rounded=0;orthogonalLoop=1;jettySize=auto;html=1;entryX=0;entryY=0.5;entryDx=0;entryDy=0;" parent="e5MXdNf6GQPyOGkP5QWz-1" source="e5MXdNf6GQPyOGkP5QWz-6" target="e5MXdNf6GQPyOGkP5QWz-7" edge="1">
          <mxGeometry relative="1" as="geometry" />
        </mxCell>
        <mxCell id="e5MXdNf6GQPyOGkP5QWz-5" value="" style="edgeStyle=orthogonalEdgeStyle;rounded=0;orthogonalLoop=1;jettySize=auto;html=1;entryX=0;entryY=0.5;entryDx=0;entryDy=0;" parent="e5MXdNf6GQPyOGkP5QWz-1" source="e5MXdNf6GQPyOGkP5QWz-6" target="e5MXdNf6GQPyOGkP5QWz-8" edge="1">
          <mxGeometry relative="1" as="geometry" />
        </mxCell>
        <mxCell id="e5MXdNf6GQPyOGkP5QWz-6" value="¿Datos de conexión correctos?" style="rhombus;whiteSpace=wrap;html=1;rounded=0;fillColor=#fff2cc;strokeColor=#d6b656;" parent="e5MXdNf6GQPyOGkP5QWz-1" vertex="1">
          <mxGeometry x="290" y="127.5" width="130" height="95" as="geometry" />
        </mxCell>
        <mxCell id="VUW4Imve3W1FjE2RulIi-5" style="edgeStyle=orthogonalEdgeStyle;rounded=0;orthogonalLoop=1;jettySize=auto;html=1;entryX=0.5;entryY=1;entryDx=0;entryDy=0;" parent="e5MXdNf6GQPyOGkP5QWz-1" source="e5MXdNf6GQPyOGkP5QWz-7" target="VUW4Imve3W1FjE2RulIi-3" edge="1">
          <mxGeometry relative="1" as="geometry" />
        </mxCell>
        <mxCell id="e5MXdNf6GQPyOGkP5QWz-7" value="Retornar interfaz de conexión" style="whiteSpace=wrap;html=1;fontColor=#000000;rounded=0;" parent="e5MXdNf6GQPyOGkP5QWz-1" vertex="1">
          <mxGeometry x="390" y="270" width="120" height="60" as="geometry" />
        </mxCell>
        <mxCell id="VUW4Imve3W1FjE2RulIi-4" value="" style="edgeStyle=orthogonalEdgeStyle;rounded=0;orthogonalLoop=1;jettySize=auto;html=1;" parent="e5MXdNf6GQPyOGkP5QWz-1" source="e5MXdNf6GQPyOGkP5QWz-8" target="VUW4Imve3W1FjE2RulIi-3" edge="1">
          <mxGeometry relative="1" as="geometry" />
        </mxCell>
        <mxCell id="e5MXdNf6GQPyOGkP5QWz-8" value="Retornar negación de conexión" style="whiteSpace=wrap;html=1;fontColor=#000000;rounded=0;" parent="e5MXdNf6GQPyOGkP5QWz-1" vertex="1">
          <mxGeometry x="410" y="64" width="120" height="60" as="geometry" />
        </mxCell>
        <mxCell id="e5MXdNf6GQPyOGkP5QWz-9" value="SI" style="text;html=1;strokeColor=none;fillColor=none;align=center;verticalAlign=middle;whiteSpace=wrap;rounded=0;" parent="e5MXdNf6GQPyOGkP5QWz-1" vertex="1">
          <mxGeometry x="330" y="310" width="60" height="30" as="geometry" />
        </mxCell>
        <mxCell id="e5MXdNf6GQPyOGkP5QWz-10" value="NO" style="text;html=1;strokeColor=none;fillColor=none;align=center;verticalAlign=middle;whiteSpace=wrap;rounded=0;" parent="e5MXdNf6GQPyOGkP5QWz-1" vertex="1">
          <mxGeometry x="330" y="50" width="60" height="30" as="geometry" />
        </mxCell>
        <mxCell id="VUW4Imve3W1FjE2RulIi-2" style="edgeStyle=orthogonalEdgeStyle;rounded=0;orthogonalLoop=1;jettySize=auto;html=1;entryX=0;entryY=0.5;entryDx=0;entryDy=0;" parent="e5MXdNf6GQPyOGkP5QWz-1" source="VUW4Imve3W1FjE2RulIi-1" target="e5MXdNf6GQPyOGkP5QWz-3" edge="1">
          <mxGeometry relative="1" as="geometry" />
        </mxCell>
        <mxCell id="VUW4Imve3W1FjE2RulIi-1" value="" style="ellipse;whiteSpace=wrap;html=1;fillColor=#d5e8d4;strokeColor=#82b366;" parent="e5MXdNf6GQPyOGkP5QWz-1" vertex="1">
          <mxGeometry x="41" y="155" width="40" height="40" as="geometry" />
        </mxCell>
        <mxCell id="VUW4Imve3W1FjE2RulIi-3" value="" style="ellipse;whiteSpace=wrap;html=1;rounded=0;fillColor=#f8cecc;strokeColor=#b85450;" parent="e5MXdNf6GQPyOGkP5QWz-1" vertex="1">
          <mxGeometry x="610" y="146" width="60" height="64" as="geometry" />
        </mxCell>
      </root>
    </mxGraphModel>
  </diagram>
  <diagram id="zxLuK5ErNYu01Z5iW-ab" name="Sub Validar Conexión BD">
    <mxGraphModel dx="1161" dy="696" grid="1" gridSize="10" guides="1" tooltips="1" connect="1" arrows="1" fold="1" page="1" pageScale="1" pageWidth="827" pageHeight="1169" math="0" shadow="0">
      <root>
        <mxCell id="0" />
        <mxCell id="1" parent="0" />
        <mxCell id="cBqJziv6xhs1uCjI0ui8-1" value="App Login" style="swimlane;html=1;startSize=20;horizontal=0;" vertex="1" parent="1">
          <mxGeometry x="30" y="205" width="710" height="380" as="geometry" />
        </mxCell>
        <mxCell id="cBqJziv6xhs1uCjI0ui8-2" value="" style="edgeStyle=orthogonalEdgeStyle;rounded=0;orthogonalLoop=1;jettySize=auto;html=1;entryX=0;entryY=0.5;entryDx=0;entryDy=0;" edge="1" parent="cBqJziv6xhs1uCjI0ui8-1" source="cBqJziv6xhs1uCjI0ui8-3" target="cBqJziv6xhs1uCjI0ui8-6">
          <mxGeometry relative="1" as="geometry" />
        </mxCell>
        <mxCell id="cBqJziv6xhs1uCjI0ui8-3" value="Recibir respuesta del servidor" style="rounded=0;whiteSpace=wrap;html=1;fontFamily=Helvetica;fontSize=12;fontColor=#000000;align=center;" vertex="1" parent="cBqJziv6xhs1uCjI0ui8-1">
          <mxGeometry x="121" y="140" width="96" height="70" as="geometry" />
        </mxCell>
        <mxCell id="cBqJziv6xhs1uCjI0ui8-4" value="" style="edgeStyle=orthogonalEdgeStyle;rounded=0;orthogonalLoop=1;jettySize=auto;html=1;entryX=0;entryY=0.5;entryDx=0;entryDy=0;" edge="1" parent="cBqJziv6xhs1uCjI0ui8-1" source="cBqJziv6xhs1uCjI0ui8-6" target="cBqJziv6xhs1uCjI0ui8-8">
          <mxGeometry relative="1" as="geometry" />
        </mxCell>
        <mxCell id="cBqJziv6xhs1uCjI0ui8-5" value="" style="edgeStyle=orthogonalEdgeStyle;rounded=0;orthogonalLoop=1;jettySize=auto;html=1;entryX=0;entryY=0.5;entryDx=0;entryDy=0;" edge="1" parent="cBqJziv6xhs1uCjI0ui8-1" source="cBqJziv6xhs1uCjI0ui8-6" target="cBqJziv6xhs1uCjI0ui8-10">
          <mxGeometry relative="1" as="geometry" />
        </mxCell>
        <mxCell id="cBqJziv6xhs1uCjI0ui8-6" value="¿Se devolvió la interfaz de conexión?" style="rhombus;whiteSpace=wrap;html=1;rounded=0;fillColor=#fff2cc;strokeColor=#d6b656;" vertex="1" parent="cBqJziv6xhs1uCjI0ui8-1">
          <mxGeometry x="290" y="127.5" width="130" height="95" as="geometry" />
        </mxCell>
        <mxCell id="cBqJziv6xhs1uCjI0ui8-7" style="edgeStyle=orthogonalEdgeStyle;rounded=0;orthogonalLoop=1;jettySize=auto;html=1;entryX=0.5;entryY=1;entryDx=0;entryDy=0;" edge="1" parent="cBqJziv6xhs1uCjI0ui8-1" source="cBqJziv6xhs1uCjI0ui8-8" target="cBqJziv6xhs1uCjI0ui8-15">
          <mxGeometry relative="1" as="geometry" />
        </mxCell>
        <mxCell id="cBqJziv6xhs1uCjI0ui8-8" value="Retornar interfaz de conexión" style="whiteSpace=wrap;html=1;fontColor=#000000;rounded=0;" vertex="1" parent="cBqJziv6xhs1uCjI0ui8-1">
          <mxGeometry x="390" y="270" width="120" height="60" as="geometry" />
        </mxCell>
        <mxCell id="cBqJziv6xhs1uCjI0ui8-9" value="" style="edgeStyle=orthogonalEdgeStyle;rounded=0;orthogonalLoop=1;jettySize=auto;html=1;" edge="1" parent="cBqJziv6xhs1uCjI0ui8-1" source="cBqJziv6xhs1uCjI0ui8-10" target="cBqJziv6xhs1uCjI0ui8-15">
          <mxGeometry relative="1" as="geometry" />
        </mxCell>
        <mxCell id="cBqJziv6xhs1uCjI0ui8-10" value="Retornar excepción (error de conexión)" style="whiteSpace=wrap;html=1;fontColor=#000000;rounded=0;" vertex="1" parent="cBqJziv6xhs1uCjI0ui8-1">
          <mxGeometry x="410" y="64" width="120" height="60" as="geometry" />
        </mxCell>
        <mxCell id="cBqJziv6xhs1uCjI0ui8-11" value="SI" style="text;html=1;strokeColor=none;fillColor=none;align=center;verticalAlign=middle;whiteSpace=wrap;rounded=0;" vertex="1" parent="cBqJziv6xhs1uCjI0ui8-1">
          <mxGeometry x="330" y="310" width="60" height="30" as="geometry" />
        </mxCell>
        <mxCell id="cBqJziv6xhs1uCjI0ui8-12" value="NO" style="text;html=1;strokeColor=none;fillColor=none;align=center;verticalAlign=middle;whiteSpace=wrap;rounded=0;" vertex="1" parent="cBqJziv6xhs1uCjI0ui8-1">
          <mxGeometry x="330" y="50" width="60" height="30" as="geometry" />
        </mxCell>
        <mxCell id="cBqJziv6xhs1uCjI0ui8-13" style="edgeStyle=orthogonalEdgeStyle;rounded=0;orthogonalLoop=1;jettySize=auto;html=1;entryX=0;entryY=0.5;entryDx=0;entryDy=0;" edge="1" parent="cBqJziv6xhs1uCjI0ui8-1" source="cBqJziv6xhs1uCjI0ui8-14" target="cBqJziv6xhs1uCjI0ui8-3">
          <mxGeometry relative="1" as="geometry" />
        </mxCell>
        <mxCell id="cBqJziv6xhs1uCjI0ui8-14" value="" style="ellipse;whiteSpace=wrap;html=1;fillColor=#d5e8d4;strokeColor=#82b366;" vertex="1" parent="cBqJziv6xhs1uCjI0ui8-1">
          <mxGeometry x="41" y="155" width="40" height="40" as="geometry" />
        </mxCell>
        <mxCell id="cBqJziv6xhs1uCjI0ui8-15" value="" style="ellipse;whiteSpace=wrap;html=1;rounded=0;fillColor=#f8cecc;strokeColor=#b85450;" vertex="1" parent="cBqJziv6xhs1uCjI0ui8-1">
          <mxGeometry x="610" y="146" width="60" height="64" as="geometry" />
        </mxCell>
      </root>
    </mxGraphModel>
  </diagram>
</mxfile>
